<?xml version="1.0" encoding="UTF-8"?>
<svg version="1.1" xmlns="http://www.w3.org/2000/svg" width="200" height="200">
<path d="M0 0 C4.52005528 0.01043773 9.04011667 0.01484028 13.56018066 0.01983643 C22.34665504 0.03039482 31.13310083 0.04734102 39.91955566 0.06866455 C40.18147705 0.76661133 40.44339844 1.46455811 40.71325684 2.18365479 C41.06364014 3.09316895 41.41402344 4.00268311 41.77502441 4.9397583 C42.1194458 5.84395508 42.46386719 6.74815186 42.81872559 7.67974854 C43.80852142 10.24590119 43.80852142 10.24590119 46.23205566 12.13116455 C49.45110171 13.25408759 52.53209787 13.73656085 55.91955566 14.06866455 C56.10705566 16.94366455 56.10705566 16.94366455 55.91955566 20.06866455 C54.92955566 20.72866455 53.93955566 21.38866455 52.91955566 22.06866455 C53.63914616 25.06249649 53.63914616 25.06249649 55.54455566 26.50616455 C56.91955566 28.06866455 56.91955566 28.06866455 56.79455566 30.19366455 C56.36143066 31.12178955 56.36143066 31.12178955 55.91955566 32.06866455 C54.92955566 32.39866455 53.93955566 32.72866455 52.91955566 33.06866455 C52.91955566 34.38866455 52.91955566 35.70866455 52.91955566 37.06866455 C53.90955566 37.06866455 54.89955566 37.06866455 55.91955566 37.06866455 C56.24955566 39.37866455 56.57955566 41.68866455 56.91955566 44.06866455 C55.59955566 44.06866455 54.27955566 44.06866455 52.91955566 44.06866455 C52.91955566 45.71866455 52.91955566 47.36866455 52.91955566 49.06866455 C54.23955566 49.06866455 55.55955566 49.06866455 56.91955566 49.06866455 C56.54455566 52.00616455 56.54455566 52.00616455 55.91955566 55.06866455 C54.92955566 55.56366455 54.92955566 55.56366455 53.91955566 56.06866455 C53.91955566 57.38866455 53.91955566 58.70866455 53.91955566 60.06866455 C54.57955566 60.39866455 55.23955566 60.72866455 55.91955566 61.06866455 C56.54455566 64.13116455 56.54455566 64.13116455 56.91955566 67.06866455 C55.59955566 67.06866455 54.27955566 67.06866455 52.91955566 67.06866455 C53.189902 69.50583713 53.189902 69.50583713 53.91955566 72.06866455 C54.90955566 72.72866455 55.89955566 73.38866455 56.91955566 74.06866455 C56.58955566 75.71866455 56.25955566 77.36866455 55.91955566 79.06866455 C54.92955566 79.06866455 53.93955566 79.06866455 52.91955566 79.06866455 C52.91955566 80.71866455 52.91955566 82.36866455 52.91955566 84.06866455 C54.23955566 84.39866455 55.55955566 84.72866455 56.91955566 85.06866455 C56.42123842 88.75621212 55.81887923 90.67357117 52.91955566 93.06866455 C53.24955566 93.72866455 53.57955566 94.38866455 53.91955566 95.06866455 C54.90955566 95.39866455 55.89955566 95.72866455 56.91955566 96.06866455 C56.91955566 98.04866455 56.91955566 100.02866455 56.91955566 102.06866455 C55.92955566 102.39866455 54.93955566 102.72866455 53.91955566 103.06866455 C53.91955566 104.38866455 53.91955566 105.70866455 53.91955566 107.06866455 C54.90955566 107.39866455 55.89955566 107.72866455 56.91955566 108.06866455 C56.58955566 111.03866455 56.25955566 114.00866455 55.91955566 117.06866455 C54.8889502 117.23302002 54.8889502 117.23302002 53.83752441 117.4006958 C52.93646973 117.55925049 52.03541504 117.71780518 51.10705566 117.88116455 C49.7670752 118.10739502 49.7670752 118.10739502 48.40002441 118.3381958 C45.52937162 119.18356914 44.59208629 119.59251561 42.91955566 122.06866455 C42.25955566 124.70866455 41.59955566 127.34866455 40.91955566 130.06866455 C5.27955566 130.06866455 -30.36044434 130.06866455 -67.08044434 130.06866455 C-67.41044434 128.08866455 -67.74044434 126.10866455 -68.08044434 124.06866455 C-68.62280042 121.29466423 -68.62280042 121.29466423 -70.08044434 119.06866455 C-72.92420749 117.81333652 -72.92420749 117.81333652 -76.20544434 117.25616455 C-77.30114746 117.02284424 -78.39685059 116.78952393 -79.52575684 116.5491333 C-80.79032715 116.31130127 -80.79032715 116.31130127 -82.08044434 116.06866455 C-82.37341309 110.01397705 -82.37341309 110.01397705 -82.08044434 108.06866455 C-80.59544434 107.07866455 -80.59544434 107.07866455 -79.08044434 106.06866455 C-79.08044434 105.07866455 -79.08044434 104.08866455 -79.08044434 103.06866455 C-80.07044434 102.73866455 -81.06044434 102.40866455 -82.08044434 102.06866455 C-82.08044434 100.08866455 -82.08044434 98.10866455 -82.08044434 96.06866455 C-80.10044434 95.57366455 -80.10044434 95.57366455 -78.08044434 95.06866455 C-78.08044434 93.74866455 -78.08044434 92.42866455 -78.08044434 91.06866455 C-79.40044434 90.73866455 -80.72044434 90.40866455 -82.08044434 90.06866455 C-82.08044434 88.08866455 -82.08044434 86.10866455 -82.08044434 84.06866455 C-80.59544434 83.57366455 -80.59544434 83.57366455 -79.08044434 83.06866455 C-79.08044434 82.07866455 -79.08044434 81.08866455 -79.08044434 80.06866455 C-80.07044434 79.73866455 -81.06044434 79.40866455 -82.08044434 79.06866455 C-82.08044434 76.75866455 -82.08044434 74.44866455 -82.08044434 72.06866455 C-80.59544434 71.57366455 -80.59544434 71.57366455 -79.08044434 71.06866455 C-79.08044434 70.07866455 -79.08044434 69.08866455 -79.08044434 68.06866455 C-80.07044434 67.73866455 -81.06044434 67.40866455 -82.08044434 67.06866455 C-82.08044434 65.08866455 -82.08044434 63.10866455 -82.08044434 61.06866455 C-80.59544434 60.57366455 -80.59544434 60.57366455 -79.08044434 60.06866455 C-79.41044434 58.74866455 -79.74044434 57.42866455 -80.08044434 56.06866455 C-80.74044434 56.06866455 -81.40044434 56.06866455 -82.08044434 56.06866455 C-82.08044434 53.75866455 -82.08044434 51.44866455 -82.08044434 49.06866455 C-80.59544434 48.57366455 -80.59544434 48.57366455 -79.08044434 48.06866455 C-79.08044434 47.07866455 -79.08044434 46.08866455 -79.08044434 45.06866455 C-80.07044434 44.73866455 -81.06044434 44.40866455 -82.08044434 44.06866455 C-82.08044434 41.75866455 -82.08044434 39.44866455 -82.08044434 37.06866455 C-80.59544434 36.57366455 -80.59544434 36.57366455 -79.08044434 36.06866455 C-79.08044434 35.07866455 -79.08044434 34.08866455 -79.08044434 33.06866455 C-80.07044434 32.73866455 -81.06044434 32.40866455 -82.08044434 32.06866455 C-82.08044434 30.08866455 -82.08044434 28.10866455 -82.08044434 26.06866455 C-80.76044434 25.73866455 -79.44044434 25.40866455 -78.08044434 25.06866455 C-78.08044434 23.74866455 -78.08044434 22.42866455 -78.08044434 21.06866455 C-79.40044434 20.73866455 -80.72044434 20.40866455 -82.08044434 20.06866455 C-82.08044434 18.08866455 -82.08044434 16.10866455 -82.08044434 14.06866455 C-81.48876465 13.98229736 -80.89708496 13.89593018 -80.28747559 13.8069458 C-74.7714201 12.82611375 -71.57986132 11.73455387 -68.08044434 7.06866455 C-67.37355467 5.08252472 -66.70101837 3.08344303 -66.08044434 1.06866455 C-44.04780418 0.02862075 -22.05241739 -0.05652899 0 0 Z M-53.10192871 7.37164307 C-54.3878894 7.42586929 -55.6738501 7.48009552 -56.9987793 7.53596497 C-60.04509747 7.78068339 -60.04509747 7.78068339 -61.67285156 9.50285339 C-62.6274073 11.2828015 -62.6274073 11.2828015 -63.13535309 13.17073059 C-64.3688511 15.64784354 -65.64076542 16.07555742 -68.10949707 17.25141907 C-71.13344933 19.01907783 -71.13344933 19.01907783 -72.83535767 21.95190239 C-73.12229705 24.29659622 -73.16204707 26.53262392 -73.11560059 28.89459229 C-73.12961914 29.77325958 -73.1436377 30.65192688 -73.15808105 31.55722046 C-73.1932441 34.45685922 -73.17000588 37.35258117 -73.14294434 40.2522583 C-73.14833491 42.27098844 -73.15610037 44.28971352 -73.1661377 46.3084259 C-73.17792809 50.53800936 -73.1608077 54.76624042 -73.12341309 58.9956665 C-73.07785666 64.41159344 -73.10405575 69.82434698 -73.1519928 75.24015713 C-73.18093643 79.40885726 -73.17168506 83.57680807 -73.15097046 87.74553108 C-73.14564168 89.74178507 -73.15215562 91.73810757 -73.17080688 93.73428154 C-73.19118804 96.52912647 -73.16009571 99.31887614 -73.11560059 102.11334229 C-73.13179443 102.93483261 -73.14798828 103.75632294 -73.16467285 104.60270691 C-73.05914099 108.18947111 -72.91056811 110.24614914 -70.29428101 112.83845711 C-68.16908465 114.43642513 -68.16908465 114.43642513 -65.97105408 115.74751377 C-63.26679288 117.63724105 -62.38770616 120.11012464 -61.08044434 123.06866455 C-57.18476208 124.3672253 -53.45348631 124.27400567 -49.38977051 124.32501221 C-48.50164169 124.33961487 -47.61351288 124.35421753 -46.69847107 124.3692627 C-38.51921913 124.49508784 -30.33900866 124.56396655 -22.15899181 124.61710548 C-16.66358497 124.65291074 -11.1696367 124.70633345 -5.67492676 124.80255127 C-0.3609874 124.89532093 4.95165991 124.94401649 10.26636314 124.96149826 C12.29069393 124.97559865 14.31497879 125.00525247 16.33884621 125.05080032 C26.92373636 125.82142611 26.92373636 125.82142611 36.31295776 122.14355469 C37.89010761 119.84453185 37.89010761 119.84453185 38.74552917 117.39590454 C39.91955566 115.06866455 39.91955566 115.06866455 42.99949646 113.31988525 C46.32384204 111.26718711 46.32384204 111.26718711 46.69491577 107.17330933 C46.73661641 105.56813143 46.74513875 103.96188656 46.72766113 102.35626221 C46.74825089 101.0384803 46.74825089 101.0384803 46.76925659 99.69407654 C46.80586273 96.78963582 46.79810998 93.88734896 46.78674316 90.98272705 C46.79586468 88.96256811 46.8064752 86.9424154 46.81851196 84.92227173 C46.83638828 80.68695885 46.83151471 76.45239986 46.81164551 72.21710205 C46.78867885 66.79341294 46.82905328 61.37233064 46.88747978 55.94898415 C46.92420676 51.77606719 46.92361874 47.60377459 46.91220474 43.43073654 C46.91189824 41.43165813 46.92399399 39.4325375 46.94878769 37.43361282 C46.97861532 34.63404193 46.95727021 31.83927817 46.92297363 29.03985596 C46.95197754 27.8052639 46.95197754 27.8052639 46.98156738 26.54573059 C46.92001893 24.14192139 46.7703187 22.32162379 45.91955566 20.06866455 C44.02572678 18.28496403 42.05551181 16.95259566 39.864748 15.55405235 C36.79908814 13.21305312 36.07528914 10.68033167 34.91955566 7.06866455 C24.89557136 7.04533647 14.87159367 7.02764635 4.84758759 7.01685238 C0.1913913 7.01166783 -4.4647862 7.0046522 -9.12097168 6.9932251 C-13.62732626 6.98223685 -18.13366295 6.97635451 -22.64002991 6.97378731 C-24.34611797 6.97196142 -26.05220523 6.96839714 -27.75828552 6.96293449 C-36.21005962 6.93698726 -44.65755997 6.98927778 -53.10192871 7.37164307 Z " fill="#1F1F1F" transform="translate(113.0804443359375,33.93133544921875)"/>
<path d="M0 0 C4.57627119 3.15254237 4.57627119 3.15254237 6 6 C6.78375 5.195625 7.5675 4.39125 8.375 3.5625 C11.67336002 0.34267236 12.17926687 0.05381857 16.8125 -0.25 C20.67719286 -0.17998745 22.98852359 0.41873451 26 3 C28.37823324 6.48807541 29.0212283 8.38437942 28.875 12.625 C28.0376996 15.85458726 27.2314291 17.57453359 25 20 C25.33 20.33 25.66 20.66 26 21 C26.09899523 22.54955559 26.13079524 24.10353673 26.1328125 25.65625 C26.13474609 27.06583984 26.13474609 27.06583984 26.13671875 28.50390625 C26.13285156 29.49261719 26.12898438 30.48132813 26.125 31.5 C26.13080078 32.98306641 26.13080078 32.98306641 26.13671875 34.49609375 C26.13542969 35.43582031 26.13414063 36.37554687 26.1328125 37.34375 C26.13168457 38.21193359 26.13055664 39.08011719 26.12939453 39.97460938 C26 42 26 42 25 43 C22.81707226 43.23481693 20.62796826 43.41363323 18.4375 43.5625 C17.23996094 43.64628906 16.04242188 43.73007813 14.80859375 43.81640625 C13.88175781 43.87699219 12.95492187 43.93757813 12 44 C13.27045696 45.75027325 14.54138106 47.50020744 15.8125 49.25 C16.52019531 50.22453125 17.22789063 51.1990625 17.95703125 52.203125 C19.18747641 53.88763501 20.44759313 55.55179996 21.76171875 57.171875 C23 59 23 59 23 62 C20.76953125 62.34375 20.76953125 62.34375 18 62 C15.76171875 59.59375 15.76171875 59.59375 13.6875 56.5 C12.99011719 55.4790625 12.29273437 54.458125 11.57421875 53.40625 C11.05472656 52.6121875 10.53523438 51.818125 10 51 C9.67 54.63 9.34 58.26 9 62 C7.35 62 5.7 62 4 62 C3.67 58.37 3.34 54.74 3 51 C2.48050781 51.7940625 1.96101563 52.588125 1.42578125 53.40625 C0.72839844 54.4271875 0.03101562 55.448125 -0.6875 56.5 C-1.37199219 57.5209375 -2.05648437 58.541875 -2.76171875 59.59375 C-5 62 -5 62 -7.76953125 62.34375 C-8.50558594 62.2303125 -9.24164063 62.116875 -10 62 C-9.50372318 57.20867288 -7.19771508 53.97909713 -4.4375 50.1875 C-4.01275391 49.59001953 -3.58800781 48.99253906 -3.15039062 48.37695312 C-2.10776741 46.91259467 -1.05489548 45.45554265 0 44 C-3.63 43.67 -7.26 43.34 -11 43 C-11.33 41.02 -11.66 39.04 -12 37 C-12.969375 37.185625 -13.93875 37.37125 -14.9375 37.5625 C-15.948125 37.706875 -16.95875 37.85125 -18 38 C-19 37 -19 37 -19.09765625 33.83984375 C-19.08025391 31.90818359 -19.08025391 31.90818359 -19.0625 29.9375 C-19.05347656 28.64714844 -19.04445313 27.35679688 -19.03515625 26.02734375 C-19.02355469 25.02832031 -19.01195313 24.02929688 -19 23 C-16.69 23.33 -14.38 23.66 -12 24 C-11.67 23.01 -11.34 22.02 -11 21 C-11.804375 20.113125 -12.60875 19.22625 -13.4375 18.3125 C-15.64140607 15.84461632 -16.40593858 14.26100359 -16.5 10.9375 C-15.98935346 6.91615854 -15.66852674 5.01285277 -13 2 C-8.33532494 -0.64038211 -5.16105037 -1.68295121 0 0 Z M-6 8 C-6.33 9.65 -6.66 11.3 -7 13 C-5.68 13.33 -4.36 13.66 -3 14 C-2.67 12.35 -2.34 10.7 -2 9 C-3.32 8.67 -4.64 8.34 -6 8 Z M16 8 C15.01 9.485 15.01 9.485 14 11 C14.99 12.485 14.99 12.485 16 14 C17.32 13.34 18.64 12.68 20 12 C19.34 10.68 18.68 9.36 18 8 C17.34 8 16.68 8 16 8 Z M6 15 C5.71125 15.639375 5.4225 16.27875 5.125 16.9375 C4 19 4 19 2 20 C4.64 20 7.28 20 10 20 C8.68 18.35 7.36 16.7 6 15 Z " fill="#1E1E1E" transform="translate(92,70)"/>
<path d="M0 0 C2.97 0 5.94 0 9 0 C9.33 1.65 9.66 3.3 10 5 C10.66 5 11.32 5 12 5 C12.33 3.35 12.66 1.7 13 0 C17.62 0 22.24 0 27 0 C27 4.66666667 27 9.33333333 27 14 C24.03 14 21.06 14 18 14 C17.505 9.05 17.505 9.05 17 4 C15.68 7.3 14.36 10.6 13 14 C11.35 13.67 9.7 13.34 8 13 C6.42141387 10.45163399 5.87482053 7.90072071 5 5 C4.67 7.97 4.34 10.94 4 14 C2.68 14 1.36 14 0 14 C0 9.38 0 4.76 0 0 Z " fill="#2B2B2B" transform="translate(120,137)"/>
<path d="M0 0 C1.77075099 20.45849802 1.77075099 20.45849802 0 24 C-4.9723422 22.50829734 -9.41845739 20.39542583 -14 18 C-14.75929325 14.11213733 -15.04250582 10.85004625 -14 7 C-10.29049469 3.73608091 -5.1270674 0 0 0 Z " fill="#282828" transform="translate(133,89)"/>
<path d="M0 0 C4.29 0 8.58 0 13 0 C13 1.65 13 3.3 13 5 C12.67 5.33 12.34 5.66 12 6 C11.95936168 7.66617115 11.957279 9.33388095 12 11 C10.02 11 8.04 11 6 11 C6 11.66 6 12.32 6 13 C8.31 13 10.62 13 13 13 C13 14.65 13 16.3 13 18 C8.71 18 4.42 18 0 18 C0 12.06 0 6.12 0 0 Z " fill="#383838" transform="translate(115,47)"/>
<path d="M0 0 C1.65 0 3.3 0 5 0 C5.33 1.32 5.66 2.64 6 4 C6.53625 3.34 7.0725 2.68 7.625 2 C10 0 10 0 13.25 -0.25 C14.61125 -0.12625 14.61125 -0.12625 16 0 C14.70700306 2.88437779 13.34058637 4.87219421 11 7 C12.25756667 10.48249231 13.7731892 13.06465849 16 16 C16 16.66 16 17.32 16 18 C13.25 18.3125 13.25 18.3125 10 18 C7.625 15.5 7.625 15.5 6 13 C5.67 14.65 5.34 16.3 5 18 C3.35 18 1.7 18 0 18 C0 12.06 0 6.12 0 0 Z " fill="#252525" transform="translate(98,47)"/>
<path d="M0 0 C0.680625 -0.00515625 1.36125 -0.0103125 2.0625 -0.015625 C4 0.25 4 0.25 7 2.25 C6.625 4.1875 6.625 4.1875 6 6.25 C3.13822943 7.68088528 1.06624227 6.84991697 -2 6.25 C-2.33 7.9 -2.66 9.55 -3 11.25 C-1.33333333 11.58333333 0.33333333 11.91666667 2 12.25 C3.66666667 12.58333333 5.33333333 12.91666667 7 13.25 C7 14.24 7 15.23 7 16.25 C3.58794404 18.34972674 0.9699753 18.58083127 -3 18.25 C-6.34265205 17.04293121 -6.94704566 16.32943151 -9 13.25 C-9.30398272 9.07023765 -9.46736434 5.75625459 -7 2.25 C-4.00261059 0.25174039 -3.36652492 -0.02550398 0 0 Z " fill="#2B2B2B" transform="translate(89,46.75)"/>
<path d="M0 0 C4.95 0 9.9 0 15 0 C15 1.65 15 3.3 15 5 C13.35 5 11.7 5 10 5 C10 9.29 10 13.58 10 18 C8.35 18 6.7 18 5 18 C5 13.71 5 9.42 5 5 C3.35 5 1.7 5 0 5 C0 3.35 0 1.7 0 0 Z " fill="#292929" transform="translate(129,47)"/>
<path d="M0 0 C4.62 0 9.24 0 14 0 C14 1.65 14 3.3 14 5 C12.35 5 10.7 5 9 5 C9 9.29 9 13.58 9 18 C7.35 18 5.7 18 4 18 C4 13.71 4 9.42 4 5 C2.68 5 1.36 5 0 5 C0 3.35 0 1.7 0 0 Z " fill="#292929" transform="translate(57,47)"/>
<path d="M0 0 C3.3 0 6.6 0 10 0 C9.814375 1.381875 9.62875 2.76375 9.4375 4.1875 C9.03903709 7.69618729 9.0030984 10.56622781 10 14 C7.03 14 4.06 14 1 14 C-0.21451659 9.14193366 -0.0658303 5.00310299 0 0 Z " fill="#101010" transform="translate(75,137)"/>
<path d="M0 0 C2.97 0 5.94 0 9 0 C9 4.62 9 9.24 9 14 C6.03 14 3.06 14 0 14 C0 9.38 0 4.76 0 0 Z " fill="#161616" transform="translate(65,137)"/>
<path d="M0 0 C0.66 0.33 1.32 0.66 2 1 C1.34 2.32 0.68 3.64 0 5 C0.66 5.66 1.32 6.32 2 7 C2.3125 9.5 2.3125 9.5 2 12 C-1.8503105 14.56687367 -3.58569763 13.83288724 -8 13 C-8 9 -8 5 -8 1 C-5.26094655 -0.36952673 -3.02912668 -0.12621361 0 0 Z " fill="#2B2B2B" transform="translate(62,137)"/>
<path d="M0 0 C2.97 0 5.94 0 9 0 C9 4.66666667 9 9.33333333 9 14 C6.03 14 3.06 14 0 14 C0 9.38 0 4.76 0 0 Z " fill="#1D1D1D" transform="translate(138,137)"/>
<path d="M0 0 C1.65 0 3.3 0 5 0 C5 5.94 5 11.88 5 18 C3.35 18 1.7 18 0 18 C0 12.06 0 6.12 0 0 Z " fill="#242425" transform="translate(73,47)"/>
<path d="M0 0 C3.63 0 7.26 0 11 0 C11 1.32 11 2.64 11 4 C9.68 4 8.36 4 7 4 C7 7.3 7 10.6 7 14 C5.68 14 4.36 14 3 14 C3 10.7 3 7.4 3 4 C2.01 4 1.02 4 0 4 C0 2.68 0 1.36 0 0 Z " fill="#080808" transform="translate(95,137)"/>
<path d="M0 0 C1.32 0 2.64 0 4 0 C4 3.3 4 6.6 4 10 C5.65 10 7.3 10 9 10 C9 11.32 9 12.64 9 14 C6.03 14 3.06 14 0 14 C0 9.38 0 4.76 0 0 Z " fill="#212121" transform="translate(110,137)"/>
<path d="M0 0 C0.66 0 1.32 0 2 0 C2 3.3 2 6.6 2 10 C2.99 9.67 3.98 9.34 5 9 C7.6875 9.4375 7.6875 9.4375 10 10 C10 11.32 10 12.64 10 14 C7.03 14 4.06 14 1 14 C0.14778004 10.59112017 -0.10783755 8.19565369 -0.0625 4.75 C-0.05347656 3.85796875 -0.04445313 2.9659375 -0.03515625 2.046875 C-0.02355469 1.37140625 -0.01195313 0.6959375 0 0 Z " fill="#434343" transform="translate(75,137)"/>
<path d="M0 0 C1.32 0 2.64 0 4 0 C4 4.62 4 9.24 4 14 C2.68 14 1.36 14 0 14 C0 9.38 0 4.76 0 0 Z " fill="#151515" transform="translate(120,137)"/>
<path d="M0 0 C1.32 0 2.64 0 4 0 C4 4.62 4 9.24 4 14 C2.68 14 1.36 14 0 14 C0 9.38 0 4.76 0 0 Z " fill="#282828" transform="translate(90,137)"/>
<path d="M0 0 C2.97 0 5.94 0 9 0 C9 1.32 9 2.64 9 4 C6.69 3.67 4.38 3.34 2 3 C1.67 6.3 1.34 9.6 1 13 C3.64 13 6.28 13 9 13 C9 13.33 9 13.66 9 14 C6.03 14 3.06 14 0 14 C0 9.38 0 4.76 0 0 Z " fill="#0B0B0C" transform="translate(65,137)"/>
<path d="M0 0 C2.97 0 5.94 0 9 0 C9 1.32 9 2.64 9 4 C7.35 4 5.7 4 4 4 C4.66 3.67 5.32 3.34 6 3 C6 2.34 6 1.68 6 1 C4.35 1 2.7 1 1 1 C1 4.96 1 8.92 1 13 C3.64 13 6.28 13 9 13 C9 13.33 9 13.66 9 14 C6.03 14 3.06 14 0 14 C0 9.38 0 4.76 0 0 Z " fill="#060606" transform="translate(138,137)"/>
<path d="M0 0 C-0.66 0.66 -1.32 1.32 -2 2 C-2.99 2 -3.98 2 -5 2 C-5 5.3 -5 8.6 -5 12 C-5.66 12 -6.32 12 -7 12 C-7 8.7 -7 5.4 -7 2 C-7.99 2 -8.98 2 -10 2 C-10 1.34 -10 0.68 -10 0 C-2.25 -1.125 -2.25 -1.125 0 0 Z " fill="#181617" transform="translate(106,138)"/>
<path d="M0 0 C4.62 0 9.24 0 14 0 C14 1.65 14 3.3 14 5 C13.34 4.67 12.68 4.34 12 4 C12 3.34 12 2.68 12 2 C8.37 2 4.74 2 1 2 C0.67 2.99 0.34 3.98 0 5 C0 3.35 0 1.7 0 0 Z " fill="#464646" transform="translate(57,47)"/>
<path d="M0 0 C4.29 0 8.58 0 13 0 C13 1.65 13 3.3 13 5 C12.34 5 11.68 5 11 5 C11 4.01 11 3.02 11 2 C7.37 2.33 3.74 2.66 0 3 C0 2.01 0 1.02 0 0 Z " fill="#474848" transform="translate(115,47)"/>
<path d="M0 0 C0.66 0.33 1.32 0.66 2 1 C-0.64 3.64 -3.28 6.28 -6 9 C-6.33 8.34 -6.66 7.68 -7 7 C-2.25 1.125 -2.25 1.125 0 0 Z " fill="#363437" transform="translate(156,146)"/>
<path d="M0 0 C1.65 0 3.3 0 5 0 C5 1.32 5 2.64 5 4 C2.36 4 -0.28 4 -3 4 C-1.68 3.34 -0.36 2.68 1 2 C0.67 1.34 0.34 0.68 0 0 Z " fill="#0A0A0A" transform="translate(114,147)"/>
<path d="M0 0 C2.64 0 5.28 0 8 0 C8 1.32 8 2.64 8 4 C6.35 4 4.7 4 3 4 C3.66 3.67 4.32 3.34 5 3 C5 2.34 5 1.68 5 1 C3.35 1 1.7 1 0 1 C0 0.67 0 0.34 0 0 Z " fill="#0C0C0C" transform="translate(139,137)"/>
</svg>
