<?xml version="1.0" encoding="UTF-8"?>
<svg version="1.1" xmlns="http://www.w3.org/2000/svg" width="921" height="271">
<path d="M0 0 C15.63044806 -0.09386242 31.26081876 -0.16418281 46.89147949 -0.20724869 C54.15073119 -0.22778544 61.40980675 -0.25573354 68.66894531 -0.30175781 C75.00348606 -0.34190047 81.33789912 -0.3674972 87.67256355 -0.37635398 C91.02008657 -0.38152304 94.36695796 -0.39565091 97.7144165 -0.42292023 C111.69721168 -0.53221764 124.66703497 -0.58608728 138 4 C139.20640137 4.4090155 140.41280273 4.81803101 141.65576172 5.23944092 C157.05917389 10.67286431 170.74370865 19.95646915 178 35 C182.41452508 44.90069211 182.39161644 55.43452376 181 66 C180.84724609 67.29550781 180.84724609 67.29550781 180.69140625 68.6171875 C178.54381817 82.47687963 170.02776316 94.08587575 158.9140625 102.2734375 C155.68350421 104.35083062 152.4350454 106.2824773 149 108 C150.134375 108.33 151.26875 108.66 152.4375 109 C171.08247805 115.27390257 189.58045558 125.37054179 198.875 143.5078125 C206.33195125 160.0270309 209.56914327 179.55111418 204.375 197.375 C203.64727684 199.27573147 202.85762679 201.15423799 202 203 C201.34644531 204.41732422 201.34644531 204.41732422 200.6796875 205.86328125 C196.96317008 213.20492633 191.93558901 222.73759118 184 226 C184 226.66 184 227.32 184 228 C163.53357309 244.83586075 136.55006433 255.19842813 110.11962891 255.11352539 C108.92881714 255.11367142 107.73800537 255.11381744 106.5111084 255.1139679 C103.25948393 255.11339214 100.00790294 255.10838966 96.7562871 255.10139394 C93.35301942 255.0951269 89.94975082 255.09455395 86.54647827 255.09336853 C80.10804705 255.09026508 73.66963288 255.082065 67.23120916 255.07201904 C59.89868469 255.06082726 52.5661594 255.05533973 45.23362851 255.05032361 C30.15574285 255.03988155 15.07787313 255.02230123 0 255 C1.18736612 251.43790164 2.36511988 250.67094844 5.3125 248.4375 C6.09238281 247.83808594 6.87226563 247.23867187 7.67578125 246.62109375 C10 245 10 245 12.2265625 243.89453125 C14.63290926 242.68075722 14.97189468 241.46745276 16 239 C16.50647882 238.14520554 17.01295765 237.29041107 17.53478432 236.40971375 C19.36465654 232.15140519 19.41871978 228.77218013 19.38095093 224.19458008 C19.3856309 223.31980672 19.39031087 222.44503336 19.39513266 221.54375172 C19.40707804 218.61885635 19.39762715 215.69442992 19.38818359 212.76953125 C19.39224949 210.67003099 19.39759147 208.57053288 19.40411377 206.47103882 C19.41779093 200.77277251 19.41248699 195.07466915 19.40297651 189.37639999 C19.39538204 183.41344513 19.40242494 177.45050424 19.40713501 171.48754883 C19.41259317 161.47377009 19.40539933 151.46005772 19.39111328 141.44628906 C19.3747867 129.86849428 19.38007516 118.29085799 19.3965925 106.71306705 C19.4102056 96.77321802 19.41212787 86.83341671 19.40427649 76.89356136 C19.39959903 70.95665323 19.39897719 65.0198196 19.40888596 59.08291626 C19.41755073 53.50146692 19.41154247 47.92022196 19.39420319 42.33879471 C19.39023576 40.29014043 19.39137676 38.24146895 19.39799118 36.1928215 C19.40618649 33.39678861 19.39590927 30.60141104 19.38095093 27.80541992 C19.38764309 26.99432675 19.39433526 26.18323359 19.40123022 25.34756184 C19.35093291 20.50190932 18.6539206 17.2089375 16 13 C13.50965774 10.67040084 13.50965774 10.67040084 10.625 8.75 C9.68914062 8.08484375 8.75328125 7.4196875 7.7890625 6.734375 C5.23462398 5.14590063 2.82601171 4.00708781 0 3 C0 2.01 0 1.02 0 0 Z M63 27 C63 52.41 63 77.82 63 104 C74.8490625 104.12375 74.8490625 104.12375 86.9375 104.25 C89.4137085 104.28641602 91.88991699 104.32283203 94.44116211 104.36035156 C96.42821387 104.37204614 98.41527529 104.38223614 100.40234375 104.390625 C101.4142981 104.41108887 102.42625244 104.43155273 103.46887207 104.45263672 C114.32315696 104.45791668 122.10722745 100.28674614 130 93 C137.69677792 84.96923961 141.16884128 76.55325447 141.4375 65.4375 C141.08924246 54.33819504 137.95902401 44.51855679 130.3359375 36.1796875 C123.93685149 30.36499291 116.63567733 26.86455637 107.95605469 26.88647461 C106.94140137 26.88659546 105.92674805 26.88671631 104.88134766 26.88684082 C103.82222168 26.89195679 102.7630957 26.89707275 101.671875 26.90234375 C100.69299316 26.90335083 99.71411133 26.90435791 98.70556641 26.90539551 C95.053699 26.91062215 91.40184831 26.92458342 87.75 26.9375 C79.5825 26.958125 71.415 26.97875 63 27 Z M63 127 C63 159.34 63 191.68 63 225 C112.31518474 227.92433116 112.31518474 227.92433116 153.0625 206.4375 C162.80838927 196.04067935 166.31096675 185.07847783 166.15234375 170.92578125 C165.7852818 163.87630938 163.3533653 158.12353664 160 152 C159.5875 151.154375 159.175 150.30875 158.75 149.4375 C156.03306096 145.65319205 152.62297688 142.89838151 149 140 C147.88431641 139.09507812 147.88431641 139.09507812 146.74609375 138.171875 C137.84371242 131.42542457 126.47543802 126.86200992 115.22167969 126.88647461 C114.04460449 126.88659546 112.8675293 126.88671631 111.65478516 126.88684082 C109.80699463 126.89451477 109.80699463 126.89451477 107.921875 126.90234375 C106.78572754 126.90335083 105.64958008 126.90435791 104.47900391 126.90539551 C100.23599233 126.91062646 95.99299515 126.92458773 91.75 126.9375 C82.2625 126.958125 72.775 126.97875 63 127 Z " fill="#015D69" transform="translate(322,3)"/>
<path d="M0 0 C7.94517401 -0.2557059 15.88861057 -0.450718 23.83689117 -0.56993389 C27.52848839 -0.627177 31.21725753 -0.70468949 34.90722656 -0.82983398 C38.47366195 -0.95002157 42.03739263 -1.01525151 45.60569763 -1.04364967 C47.61829053 -1.07365286 49.62980422 -1.15943299 51.64074707 -1.2462616 C60.64953593 -1.25229446 60.64953593 -1.25229446 64.57597351 2.38871765 C66.6227742 5.17704801 68.34185127 7.96805314 70 11 C70.8464366 12.27390053 71.70329813 13.54112787 72.58203125 14.79296875 C73.32762874 15.92309129 74.07111818 17.05460743 74.8125 18.1875 C78.36099469 23.56031879 81.96602661 28.88930146 85.625 34.1875 C88.82990268 38.8297361 92.00717025 43.4860107 95.125 48.1875 C111.99723911 73.59832166 129.58864795 99.05163067 148.8125 122.75 C152.71704758 127.56803387 156.41673106 132.53066675 160.125 137.5 C165.14069093 144.2210635 170.21075676 150.89233913 175.375 157.5 C181.59258239 165.4567421 187.75789362 173.44479879 193.62280273 181.66723633 C194.06913559 182.29277908 194.51546844 182.91832184 194.97532654 183.56282043 C195.31346878 184.03708969 195.65161102 184.51135895 196 185 C196.04669275 163.29499731 196.08197547 141.59000288 196.10362434 119.88496017 C196.11394286 109.80724154 196.12801417 99.72955409 196.15087891 89.65185547 C196.17079518 80.8695226 196.18371225 72.08721231 196.18817699 63.30485749 C196.19078736 58.65342302 196.1969348 54.00205314 196.21146011 49.35063934 C196.22501617 44.97422605 196.22922665 40.59790408 196.22621536 36.22147179 C196.22676641 34.61381471 196.23075562 33.00615464 196.23841095 31.3985157 C196.24834135 29.2058923 196.24597597 27.01361508 196.24050903 24.82098389 C196.24235262 23.59315563 196.24419621 22.36532738 196.24609566 21.10029221 C195.92299537 17.02990224 195.05276438 14.97772007 192.08203125 12.21875 C187.5350908 8.77528391 183.03805481 5.67981639 178 3 C178 2.01 178 1.02 178 0 C201.76 0 225.52 0 250 0 C250 0.99 250 1.98 250 3 C249.071875 3.37125 248.14375 3.7425 247.1875 4.125 C243.83974978 5.58024653 240.56349858 7.15213745 237.3125 8.8125 C236.40113281 9.27269531 235.48976563 9.73289062 234.55078125 10.20703125 C231.26405433 12.51730331 229.89598425 14.43053208 228 18 C227.42491104 21.40700056 227.45299948 24.76357732 227.48101807 28.2124939 C227.47351681 29.23850854 227.46601556 30.26452317 227.458287 31.32162917 C227.4379945 34.75808209 227.44611591 38.1938762 227.45410156 41.63037109 C227.44536745 44.09428562 227.43488224 46.55819447 227.42277527 49.02209473 C227.40065476 54.32590382 227.39071408 59.6295214 227.39188385 64.93336105 C227.39355402 72.60173441 227.37320895 80.26992572 227.34752855 87.9382505 C227.30645791 100.38021151 227.28313728 112.82213975 227.27099609 125.26416016 C227.25916557 137.34882761 227.23896493 149.43343338 227.20751953 161.51806641 C227.20558343 162.26323896 227.20364733 163.00841151 227.20165256 163.77616505 C227.19188789 167.51455943 227.1819588 171.25295335 227.17194796 174.99134707 C227.08913974 205.99420487 227.03544128 236.99705015 227 268 C222.13610304 266.49778346 218.61832291 264.49654366 214.6875 261.3125 C213.55213427 260.41269614 212.4167173 259.51295693 211.28125 258.61328125 C210.45173828 257.9493335 210.45173828 257.9493335 209.60546875 257.27197266 C206.6234551 254.90939797 203.55975881 252.65145362 200.51171875 250.375 C200.01285156 249.92125 199.51398438 249.4675 199 249 C199 248.34 199 247.68 199 247 C198.10704224 246.59382446 198.10704224 246.59382446 197.19604492 246.17944336 C195.02596441 245.01394487 193.60015376 243.85807034 191.86328125 242.12890625 C191.29085693 241.56059082 190.71843262 240.99227539 190.12866211 240.40673828 C189.52932861 239.79813965 188.92999512 239.18954102 188.3125 238.5625 C187.68674072 237.93069824 187.06098145 237.29889648 186.41625977 236.64794922 C181.24542527 231.36706859 176.56852291 225.8082226 172 220 C170.440628 218.07745094 168.87352347 216.16134855 167.30639648 214.24511719 C161.22301455 206.80054873 155.24663703 199.27729696 149.32958984 191.70019531 C147.56870765 189.44849064 145.79999588 187.20299703 144.03149414 184.95727539 C134.48676031 172.83260261 125.02134167 160.64622139 115.625 148.40625 C112.43371992 144.25758589 109.21572808 140.12972158 106 136 C101.17727084 129.80505963 96.36241472 123.60481789 91.58984375 117.37109375 C89.59648069 114.76853736 87.58341166 112.18192713 85.56640625 109.59765625 C84.37752851 108.06516286 83.18872579 106.53261126 82 105 C81.43531006 104.28126709 80.87062012 103.56253418 80.28881836 102.82202148 C77.59996553 99.34278776 75.33045653 96.25746089 74 92 C73.34 92 72.68 92 72 92 C70.51171875 90.19140625 70.51171875 90.19140625 68.6875 87.5625 C64.98681523 82.30475478 61.12419666 77.18783741 57.20703125 72.08984375 C56.60814087 71.30863159 56.00925049 70.52741943 55.39221191 69.72253418 C53.92909903 67.8142847 52.46501035 65.90679288 51 64 C50.90651088 85.76627187 50.83599831 107.53251057 50.79275131 129.29894257 C50.77213621 139.40574358 50.74403568 149.51241975 50.69824219 159.61914062 C50.65834226 168.42934647 50.63255954 177.23946189 50.62364602 186.04975557 C50.61843663 190.7136991 50.60621454 195.37738397 50.57707977 200.04124451 C50.54986081 204.43415771 50.54156807 208.82670652 50.54756927 213.21969604 C50.54647193 214.82891319 50.53855659 216.43814295 50.5231781 218.04728699 C50.44841355 226.27636446 50.43631319 232.89490642 55 240 C55.33 240.99 55.66 241.98 56 243 C57.30975072 243.7118815 58.64721094 244.37375407 60 245 C61.21736513 245.96342015 62.40560455 246.9647468 63.5625 248 C65.66995197 249.87746278 67.63332529 251.42221686 70 253 C70 253.66 70 254.32 70 255 C46.9 255 23.8 255 0 255 C1.84897091 251.30205818 2.71344699 250.15322813 5.75 247.6875 C10.04603655 244.05660572 14.45214463 240.09571074 17 235 C17.11117137 232.17135896 17.1610636 229.36663523 17.1673584 226.53720093 C17.17315178 225.65092219 17.17894517 224.76464345 17.18491411 223.85150778 C17.20303869 220.8637384 17.21386431 217.87598801 17.22460938 214.88818359 C17.2357802 212.75311102 17.24729338 210.61804021 17.25912476 208.48297119 C17.29573707 201.45481825 17.32090905 194.42664714 17.34375 187.3984375 C17.34769587 186.20349938 17.35164173 185.00856126 17.35570717 183.77741289 C17.39212912 172.51136487 17.42358024 161.24531067 17.44481659 149.97922325 C17.47239684 135.55951535 17.5231668 121.14029911 17.60529089 106.72079599 C17.66105329 96.58738601 17.69004856 86.45410953 17.6992898 76.32055151 C17.70555214 70.26592692 17.72371779 64.21187835 17.77067566 58.15742111 C17.81432128 52.45929296 17.82483643 46.76205623 17.81004715 41.06378937 C17.81037601 38.97401056 17.8226682 36.88419366 17.84789658 34.79456711 C18.52291912 22.57120927 18.52291912 22.57120927 13.68371582 11.87808228 C11.91087997 10.28261943 11.91087997 10.28261943 10 9 C9.37230461 8.49849112 8.74460922 7.99698223 8.09789276 7.48027611 C5.48224492 5.47344807 3.13554526 4.04518175 0 3 C0 2.01 0 1.02 0 0 Z " fill="#025D69" transform="translate(553,3)"/>
<path d="M0 0 C26.4 0 52.8 0 80 0 C80 0.99 80 1.98 80 3 C79.071875 3.33 78.14375 3.66 77.1875 4 C71.44167424 6.46081472 64.53673356 10.4386077 60.8694973 15.58714485 C59.56085557 19.21862588 59.71825812 22.82878706 59.73257446 26.64083862 C59.72804335 27.52207024 59.72351224 28.40330185 59.71884382 29.31123745 C59.70616374 32.26988188 59.70782251 35.22834309 59.70947266 38.18701172 C59.70348968 40.30592079 59.69668467 42.42482768 59.68911743 44.54373169 C59.67142719 50.30405618 59.66676079 56.06432129 59.66548586 61.82467031 C59.66358821 66.63093671 59.65623226 71.43718922 59.64914167 76.24345028 C59.63284876 87.5814154 59.62797356 98.91934874 59.62939453 110.25732422 C59.63059634 121.95893227 59.60948859 133.66035598 59.5779072 145.36191738 C59.55176984 155.40363111 59.54102616 165.44528455 59.54230535 175.48703206 C59.54281571 181.4866077 59.53709144 187.48601956 59.51594925 193.48556137 C59.49660964 199.12774931 59.49641322 204.76961651 59.51098251 210.41181564 C59.51307699 212.48305224 59.50833186 214.55430869 59.4962616 216.62551117 C59.48085371 219.45245097 59.49008786 222.27827869 59.50552368 225.10519409 C59.49523656 225.9254334 59.48494943 226.7456727 59.47435057 227.59076774 C59.55332813 234.13296345 61.75948021 237.71511348 66.3671875 242.4140625 C71.764259 247.22544659 71.764259 247.22544659 77.625 251.4375 C78.800625 252.2109375 78.800625 252.2109375 80 253 C80 253.66 80 254.32 80 255 C53.6 255 27.2 255 0 255 C1.22915622 251.31253133 2.60827905 250.55136095 5.6875 248.25 C10.52049787 244.49715638 15.21227173 240.57545654 18 235 C18.10899849 232.1690572 18.15664062 229.3621236 18.16062927 226.5304718 C18.16571709 225.6434875 18.17080491 224.75650319 18.17604691 223.84264058 C18.19181861 220.85253349 18.20030888 217.86245064 18.20874023 214.87231445 C18.2182749 212.73561955 18.22816588 210.59892622 18.23838806 208.4622345 C18.26981813 201.42926882 18.29004495 194.39629115 18.30859375 187.36328125 C18.31189107 186.16769459 18.31518839 184.97210792 18.31858563 183.74029136 C18.34936846 172.4693421 18.3760827 161.19839025 18.39300442 149.92741108 C18.41491886 135.4987496 18.45690052 121.07045991 18.52644199 106.64194709 C18.57365141 96.50345442 18.59793395 86.36506217 18.6052013 76.22646302 C18.61016223 70.16802633 18.62528555 64.11000834 18.6649456 58.05169106 C18.7017707 52.35116731 18.71023483 46.65130209 18.69693947 40.95068169 C18.69699349 38.85888156 18.70731753 36.76705256 18.7286911 34.67536163 C18.75633044 31.8175935 18.746883 28.96223398 18.72825623 26.10444641 C18.74505115 25.27797381 18.76184608 24.45150121 18.77914995 23.59998399 C18.69017804 18.13203349 17.30838 15.35090064 13.52607876 11.40266961 C11.56214125 9.5975495 9.56824464 8.05009521 7.3125 6.625 C6.56613281 6.14289062 5.81976562 5.66078125 5.05078125 5.1640625 C2.91449743 3.86411321 2.91449743 3.86411321 0 3 C0 2.01 0 1.02 0 0 Z " fill="#015C6A" transform="translate(841,3)"/>
<path d="M0 0 C0.7839061 -0.00335861 1.56781219 -0.00671722 2.37547302 -0.01017761 C4.97510347 -0.01970106 7.57466959 -0.02163148 10.17431641 -0.02270508 C11.97791572 -0.02591692 13.78151477 -0.02928093 15.58511353 -0.03279114 C19.36973678 -0.03878605 23.15433718 -0.04063069 26.93896484 -0.04003906 C31.79027429 -0.03993747 36.64143728 -0.05358497 41.49271202 -0.07081127 C45.21931634 -0.08192669 48.94588522 -0.0839584 52.67250443 -0.08342934 C54.46108123 -0.08461033 56.24965893 -0.08903875 58.03821945 -0.0967617 C60.53990699 -0.10655144 63.04127616 -0.10368751 65.54296875 -0.09765625 C66.65279869 -0.10608551 66.65279869 -0.10608551 67.78504944 -0.11468506 C71.48519006 -0.09199985 74.25783868 0.09386146 77.40087891 2.14526367 C77.13533203 2.84651367 76.86978516 3.54776367 76.59619141 4.27026367 C76.24298828 5.21901367 75.88978516 6.16776367 75.52587891 7.14526367 C75.17783203 8.07338867 74.82978516 9.00151367 74.47119141 9.95776367 C68.4949058 27.75575293 69.24040496 50.39565652 75.40087891 68.14526367 C75.66932617 68.94657715 75.93777344 69.74789062 76.21435547 70.57348633 C83.1051335 90.82230084 93.1695425 108.68011017 105.40087891 126.14526367 C106.09044678 127.13429687 106.09044678 127.13429687 106.79394531 128.14331055 C111.39685338 134.72605384 116.06890015 141.18671496 121.31884766 147.27807617 C122.40087891 149.14526367 122.40087891 149.14526367 122.47509766 151.06323242 C120.78464918 154.33962892 117.92857791 156.18555646 115.02587891 158.33276367 C113.75426828 159.30049314 112.48344575 160.269259 111.21337891 161.23901367 C110.57529297 161.72241211 109.93720703 162.20581055 109.27978516 162.70385742 C106.47742133 164.85369578 103.75319876 167.08840671 101.02587891 169.33276367 C99.68396484 170.4368457 99.68396484 170.4368457 98.31494141 171.56323242 C97.68330078 172.08530273 97.05166016 172.60737305 96.40087891 173.14526367 C93.34027448 171.81076461 91.57198565 170.47255915 89.52587891 167.84448242 C89.01541016 167.19672852 88.50494141 166.54897461 87.97900391 165.8815918 C87.45822266 165.20547852 86.93744141 164.52936523 86.40087891 163.83276367 C85.88009766 163.16825195 85.35931641 162.50374023 84.82275391 161.8190918 C83.80819221 160.52398842 82.7976261 159.22574285 81.79150391 157.92407227 C80.56559542 156.35595969 79.29868195 154.82008937 78.02587891 153.28979492 C76.40087891 151.14526367 76.40087891 151.14526367 76.40087891 149.14526367 C75.74087891 149.14526367 75.08087891 149.14526367 74.40087891 149.14526367 C73.02455586 147.46645204 71.72646709 145.72334625 70.46337891 143.95776367 C67.13259854 139.38024753 63.65857877 134.99610086 59.96337891 130.70776367 C54.98319424 124.90577493 50.3137797 118.9111043 45.68652344 112.82641602 C39.3756286 104.57407612 32.89523144 96.45644744 26.27587891 88.44995117 C21.40087891 82.45776367 21.40087891 82.45776367 21.40087891 80.14526367 C19.91587891 79.65026367 19.91587891 79.65026367 18.40087891 79.14526367 C16.6439736 77.11829353 15.01393643 75.09427501 13.40087891 72.95776367 C12.41803274 71.68024544 11.43495301 70.40290687 10.45166016 69.12573242 C9.94844238 68.46750488 9.44522461 67.80927734 8.92675781 67.13110352 C6.51086946 63.98696978 4.04755342 60.88057219 1.58837891 57.77026367 C0.32224863 56.16843854 -0.94071095 54.56608382 -2.18070984 52.94392395 C-3.13149812 51.73824745 -4.12115217 50.56229866 -5.14546204 49.41842651 C-9.70659983 44.04976482 -10.42937235 40.0986574 -10.18505859 33.17651367 C-10.17656891 32.25559937 -10.16807922 31.33468506 -10.15933228 30.38586426 C-10.12599178 27.47109361 -10.0507525 24.55918476 -9.97412109 21.64526367 C-9.94399633 19.65832472 -9.91662494 17.671342 -9.89208984 15.68432617 C-9.82626435 10.83688488 -9.72288057 5.99155786 -9.59912109 1.14526367 C-6.54358374 -0.38250501 -3.35248523 -0.00204225 0 0 Z " fill="#EF5923" transform="translate(9.59912109375,-0.145263671875)"/>
<path d="M0 0 C3.03297676 1.80866893 3.03297676 1.80866893 6.37887573 3.23690796 C15.06025457 7.80009819 15.06025457 7.80009819 16.7597847 12.92316055 C17.90398462 19.65767303 17.52568089 26.4799629 17.30607605 33.27818298 C17.28180603 35.48486907 17.26331205 37.69162558 17.25033569 39.89840698 C17.20087728 45.68548099 17.07335403 51.46826095 16.92918396 57.25364685 C16.79579728 63.16553148 16.73674021 69.0781155 16.67131042 74.99107361 C16.53220718 86.57693695 16.31056818 98.15962377 16.0365448 109.74302673 C14.77326716 110.3857105 13.5086886 111.02583753 12.24357605 111.66490173 C11.18747131 112.2000238 11.18747131 112.2000238 10.11003113 112.74595642 C1.26114725 117.00108909 -8.77708793 116.92862184 -17.9634552 113.74302673 C-18.6234552 113.52130798 -19.2834552 113.29958923 -19.9634552 113.07115173 C-30.78603037 108.85353053 -42.12300263 100.20573744 -49.9634552 91.74302673 C-49.9634552 91.08302673 -49.9634552 90.42302673 -49.9634552 89.74302673 C-51.2834552 89.08302673 -52.6034552 88.42302673 -53.9634552 87.74302673 C-53.9634552 87.08302673 -53.9634552 86.42302673 -53.9634552 85.74302673 C-54.53322083 85.51615173 -55.10298645 85.28927673 -55.6900177 85.05552673 C-65.83913314 79.19624359 -73.48683286 63.83791273 -76.8072052 52.98521423 C-80.52895212 38.95974206 -80.58843068 25.34328447 -73.67829895 12.32115173 C-66.00118897 -0.0819786 -55.73874236 -7.27447251 -41.6900177 -10.75697327 C-26.82690182 -13.48258764 -12.60236559 -7.51851341 0 0 Z " fill="#EF5923" transform="translate(242.9634552001953,68.25697326660156)"/>
<path d="M0 0 C0.82717026 -0.00556915 1.65434052 -0.01113831 2.50657654 -0.01687622 C3.4117099 -0.00766144 4.31684326 0.00155334 5.24940491 0.01104736 C6.20638779 0.00900299 7.16337067 0.00695862 8.14935303 0.00485229 C11.3366214 0.00182941 14.52337878 0.02040893 17.71058655 0.03936768 C19.95176059 0.0424309 22.19293654 0.04430273 24.43411255 0.04504395 C29.16135331 0.04966096 33.88842508 0.06410917 38.61561584 0.08624268 C44.56235953 0.11399621 50.50896859 0.12532118 56.45577049 0.13004303 C82.96827099 0.15339255 109.43437033 0.48962461 135.9332428 1.36749268 C135.9332428 13.57749268 135.9332428 25.78749268 135.9332428 38.36749268 C131.90010559 37.56086523 128.17344011 36.54277724 124.2457428 35.36749268 C102.88042139 29.43371782 82.3999454 32.75614638 63.0973053 43.35186768 C58.90377511 46.02330172 55.40190528 49.17153715 51.85902405 52.64483643 C49.9332428 54.36749268 49.9332428 54.36749268 47.9332428 54.36749268 C47.68058655 54.93081299 47.4279303 55.4941333 47.1676178 56.07452393 C45.76482738 58.6803403 44.04591588 60.75552998 42.1832428 63.05499268 C32.922862 75.65986672 30.01762412 92.1840177 27.9332428 107.36749268 C24.76656882 106.01131538 23.11060406 104.66591428 21.1207428 101.86749268 C20.60898499 101.15206299 20.09722717 100.4366333 19.56996155 99.69952393 C19.02984436 98.92995361 18.48972717 98.1603833 17.9332428 97.36749268 C17.36218811 96.58760986 16.79113342 95.80772705 16.20277405 95.00421143 C-0.48144362 71.91148631 -13.97339047 41.66759382 -9.49253845 12.64874268 C-6.84513019 -0.01399313 -6.84513019 -0.01399313 0 0 Z " fill="#EF5923" transform="translate(123.06675720214844,-0.36749267578125)"/>
<path d="M0 0 C1.32 0 2.64 0 4 0 C5.40568804 1.94982535 6.7295036 3.95950578 8 6 C9.64470354 7.6883441 11.31352367 9.3533813 13 11 C14.06347656 12.13308594 14.06347656 12.13308594 15.1484375 13.2890625 C24.14404252 22.72655689 35.06166834 31.57863736 47 37 C48.1446875 37.52464844 49.289375 38.04929688 50.46875 38.58984375 C64.96673804 44.82567481 81.65317104 46.50389483 96.5625 40.5859375 C103.28457987 37.57078236 108.68224811 34.07707663 113.546875 28.50390625 C114.02640625 28.00761719 114.5059375 27.51132813 115 27 C115.66 27 116.32 27 117 27 C117 48.78 117 70.56 117 93 C87.63 93 58.26 93 28 93 C29.71367057 89.57265885 30.31069907 88.45001253 33.0390625 86.203125 C33.61914062 85.71972656 34.19921875 85.23632812 34.796875 84.73828125 C35.40015625 84.24714844 36.0034375 83.75601563 36.625 83.25 C37.23601562 82.74339844 37.84703125 82.23679687 38.4765625 81.71484375 C39.97929053 80.4703971 41.48897467 79.23435872 43 78 C42.31035156 77.90203125 41.62070313 77.8040625 40.91015625 77.703125 C34.3567697 76.66033647 28.8689535 75.07974788 23 72 C22.07445312 71.52820313 21.14890625 71.05640625 20.1953125 70.5703125 C11.96989323 66.10508489 5.62796708 60.49270245 -1 54 C-1.65742188 53.38125 -2.31484375 52.7625 -2.9921875 52.125 C-7.25814061 48.03597582 -10.95214419 43.52856976 -14.640625 38.91796875 C-16.26201276 36.91270939 -17.92076011 34.9372664 -19.609375 32.98828125 C-20.85460937 31.54001953 -20.85460937 31.54001953 -22.125 30.0625 C-22.89070313 29.18722656 -23.65640625 28.31195313 -24.4453125 27.41015625 C-26 25 -26 25 -26.109375 23.0078125 C-24.40901969 19.93040887 -21.82528106 17.97747293 -19.125 15.8125 C-18.5465332 15.33635254 -17.96806641 14.86020508 -17.37207031 14.36962891 C-15.58834241 12.90431935 -13.79469779 11.45184046 -12 10 C-10.90808274 9.10641057 -9.81690045 8.21192205 -8.7265625 7.31640625 C-6.83689433 5.76648157 -4.94402925 4.22043994 -3.046875 2.6796875 C-1.12984433 1.16253021 -1.12984433 1.16253021 0 0 Z " fill="#F05923" transform="translate(142,165)"/>
<path d="M0 0 C4.55107308 3.24958224 7.46372325 7.02156419 10.6875 11.5 C14.31058795 16.43592191 17.97479819 21.26902286 21.9375 25.9375 C25.88581793 30.59853346 29.62464729 35.38069796 33.3125 40.25 C38.82817263 47.53243079 44.5259549 54.64507212 50.3203125 61.70703125 C56 68.67117793 56 68.67117793 56 71 C56.66 71 57.32 71 58 71 C59.63139937 72.92587579 61.13723225 74.84326717 62.625 76.875 C63.04523438 77.43058594 63.46546875 77.98617187 63.8984375 78.55859375 C67 82.73764712 67 82.73764712 67 85 C67.66 85 68.32 85 69 85 C70.875 87.01171875 70.875 87.01171875 73 89.6875 C73.70125 90.55761719 74.4025 91.42773438 75.125 92.32421875 C76.89022426 94.84334087 77.99869018 97.1055888 79 100 C78.42894531 100.44988281 77.85789062 100.89976562 77.26953125 101.36328125 C72.2733602 105.32685733 67.35481554 109.3656365 62.5 113.5 C58.71104493 116.72636433 54.90141269 119.90927047 51 123 C47.12245536 126.07312695 43.33097321 129.23270143 39.5625 132.4375 C34.65738386 136.60892655 29.71366743 140.72590589 24.71484375 144.78515625 C22.77998642 146.36366575 20.85669868 147.95640149 18.94140625 149.55859375 C17.95011719 150.38488281 16.95882813 151.21117187 15.9375 152.0625 C15.03902344 152.81660156 14.14054688 153.57070312 13.21484375 154.34765625 C11 156 11 156 9 156 C8.67 156.99 8.34 157.98 8 159 C6.37109375 160.38671875 6.37109375 160.38671875 4.4375 161.6875 C3.79683594 162.12449219 3.15617188 162.56148437 2.49609375 163.01171875 C2.00238281 163.33785156 1.50867188 163.66398438 1 164 C0.34 163.67 -0.32 163.34 -1 163 C-1.02332704 141.89509632 -1.04097821 120.79019475 -1.05181217 99.6852808 C-1.05697554 89.88661837 -1.06401902 80.08796394 -1.07543945 70.28930664 C-1.08538503 61.75201345 -1.09185313 53.21472605 -1.09408849 44.67742723 C-1.09539582 40.15410072 -1.09848302 35.63079078 -1.10573006 31.10746956 C-1.11248829 26.85502068 -1.11461737 22.60259527 -1.11310768 18.35014153 C-1.1133841 16.78476713 -1.11539039 15.21939199 -1.11920547 13.65402222 C-1.12413967 11.52611907 -1.12299933 9.39830599 -1.12025452 7.270401 C-1.12117631 6.07667909 -1.1220981 4.88295717 -1.12304783 3.65306187 C-1 1 -1 1 0 0 Z " fill="#F05923" transform="translate(1,94)"/>
<path d="M0 0 C2.4785449 1.28461169 3.86203157 2.80590592 5.671875 4.93359375 C6.37183594 5.75214844 7.07179688 6.57070312 7.79296875 7.4140625 C10.47485445 10.66677158 13.10859225 13.95433719 15.72265625 17.26171875 C18.23609534 20.38677623 20.82116805 23.443671 23.421875 26.49609375 C28.03189364 31.91123793 32.51142286 37.41672445 36.921875 42.99609375 C37.65535156 43.87265625 38.38882813 44.74921875 39.14453125 45.65234375 C40.921875 47.99609375 40.921875 47.99609375 40.921875 49.99609375 C7.921875 49.99609375 -25.078125 49.99609375 -59.078125 49.99609375 C-56.90465885 45.64916145 -54.29144354 43.33281173 -50.640625 40.30859375 C-50.01099854 39.7782251 -49.38137207 39.24785645 -48.73266602 38.70141602 C-44.14255237 34.84599955 -39.50430029 31.04902793 -34.8515625 27.26953125 C-31.7540377 24.73043346 -28.69396812 22.15048466 -25.640625 19.55859375 C-21.30060013 15.87477702 -16.95051915 12.20396378 -12.578125 8.55859375 C-11.6396875 7.77613281 -10.70125 6.99367187 -9.734375 6.1875 C-8.8578125 5.46433594 -7.98125 4.74117187 -7.078125 3.99609375 C-6.2221875 3.22136719 -5.36625 2.44664062 -4.484375 1.6484375 C-2.078125 -0.00390625 -2.078125 -0.00390625 0 0 Z " fill="#F05A23" transform="translate(91.078125,208.00390625)"/>
<path d="M0 0 C0.61875 1.36125 0.61875 1.36125 1.25 2.75 C2.7297059 6.00635302 2.7297059 6.00635302 5.07847023 7.6613903 C7.89019074 11.08341215 7.5471168 14.43369886 7.49447632 18.66775513 C7.49930515 19.551809 7.50413398 20.43586288 7.50910914 21.34670627 C7.52039887 24.31493238 7.50304677 27.28230058 7.48583984 30.25048828 C7.48798521 32.37588739 7.49186216 34.50128535 7.49734497 36.62667847 C7.50705133 42.40336637 7.49171965 48.17974596 7.47143888 53.95639658 C7.45389675 59.99329699 7.45739238 66.03018746 7.4581604 72.06710815 C7.45628649 82.20380832 7.43890874 92.34038885 7.41162109 102.47705078 C7.38015243 114.21050213 7.36962543 125.94382247 7.3710922 137.67731297 C7.37231122 148.94978925 7.36211555 160.2222227 7.34550858 171.49468613 C7.33843245 176.29928801 7.33478059 181.10387475 7.33372116 185.9084816 C7.33171784 191.56045228 7.31955378 197.2123122 7.29938889 202.86424637 C7.29352821 204.94360171 7.2910903 207.02296979 7.29224396 209.10233307 C7.29321958 211.93041203 7.28197163 214.7581768 7.26742554 217.58621216 C7.27052274 218.41810283 7.27361995 219.2499935 7.276811 220.10709298 C7.22835806 225.77164194 7.22835806 225.77164194 5 228 C5.00129882 226.88901443 5.00259764 225.77802887 5.00393581 224.63337708 C5.03393983 197.60037293 5.02378821 170.56761115 4.97153378 143.53463745 C4.94719345 130.46165843 4.93590009 117.38891126 4.95532227 104.31591797 C4.97221761 92.92144271 4.96463219 81.52729172 4.92765242 70.13285923 C4.90892649 64.09950782 4.90245792 58.06670483 4.92530632 52.03335571 C4.94643036 46.35319791 4.93479457 40.67404454 4.89815521 34.99397469 C4.89046882 32.91069506 4.8946974 30.82733169 4.91181374 28.7441082 C5.53981059 16.46921857 5.53981059 16.46921857 0.50709534 5.82324219 C-0.64017105 4.85574641 -1.80471913 3.90750861 -3 3 C-3.33 2.34 -3.66 1.68 -4 1 C-2 0 -2 0 0 0 Z " fill="#1B5E67" transform="translate(566,9)"/>
<path d="M0 0 C0 21.78 0 43.56 0 66 C-29.37 66 -58.74 66 -89 66 C-88.34 64.68 -87.68 63.36 -87 62 C-86.01 62 -85.02 62 -84 62 C-84.66 62.99 -85.32 63.98 -86 65 C-58.28 65 -30.56 65 -2 65 C-2.33 48.17 -2.66 31.34 -3 14 C-13.74689927 13.51492875 -13.74689927 13.51492875 -19 15 C-19 14.34 -19 13.68 -19 13 C-18.443125 12.731875 -17.88625 12.46375 -17.3125 12.1875 C-11.79801526 9.35573757 -7.81222308 6.14628825 -3.62890625 1.57421875 C-2 0 -2 0 0 0 Z " fill="#ED5A28" transform="translate(259,192)"/>
<path d="M0 0 C0.66 0 1.32 0 2 0 C4.34540439 4.63780407 4.27862589 8.77984293 4.24723816 13.85047913 C4.24965257 14.7421434 4.25206699 15.63380768 4.25455457 16.55249208 C4.26019041 19.54035894 4.25152926 22.52801189 4.24291992 25.51586914 C4.24399283 27.65787311 4.24593163 29.79987679 4.24867249 31.94187927 C4.25352235 37.75987667 4.24586349 43.57779744 4.23571944 49.39578557 C4.22694176 55.47979347 4.22869633 61.56379895 4.2290802 67.64781189 C4.22814346 77.8642607 4.21945791 88.08067982 4.20581055 98.29711914 C4.19008075 110.11630216 4.18481259 121.93545267 4.1855461 133.75464541 C4.18615604 145.11627025 4.18105399 156.47788449 4.17275429 167.83950615 C4.16921983 172.67873657 4.16739081 177.51796325 4.16686058 182.3571949 C4.16585746 188.05264924 4.15976331 193.74807619 4.14969444 199.4435215 C4.14676897 201.53655581 4.14554417 203.62959327 4.14612198 205.72262955 C4.14661133 208.57395051 4.14097013 211.42519429 4.13371277 214.27650452 C4.13526137 215.10966928 4.13680997 215.94283404 4.1384055 216.80124623 C4.11403855 222.57672239 4.11403855 222.57672239 3.42946035 225.11767572 C2.77319668 227.07553028 2.77319668 227.07553028 4 229 C1 231 1 231 -3 231 C-1.87409744 228.74819489 -0.74107366 226.56615158 0.55082989 224.40148067 C2.36209195 220.15010063 2.41576079 216.76631474 2.3742218 212.2013092 C2.37819621 211.32724141 2.38217061 210.45317362 2.38626546 209.55261892 C2.39587335 206.6300462 2.38407934 203.70795937 2.37231445 200.78540039 C2.37474293 198.6875236 2.37846279 196.58964796 2.38337708 194.49177551 C2.39278258 188.79756572 2.38336306 183.10352792 2.37004495 177.40933156 C2.35872713 171.44951811 2.36283825 165.48971308 2.36479187 159.52989197 C2.36567481 149.52030631 2.35459503 139.51078837 2.33618164 129.5012207 C2.31501984 117.93142451 2.31150294 106.36172758 2.3177436 94.79191595 C2.3234403 83.66041699 2.31778759 72.52895296 2.30657005 61.39745903 C2.30192755 56.66118155 2.30104872 51.92492545 2.3031559 47.18864632 C2.3050409 41.60969038 2.29691844 36.03083533 2.2810955 30.45190239 C2.27685641 28.4052815 2.27599958 26.35865036 2.27878571 24.31202698 C2.28201374 21.51646578 2.27290986 18.72120478 2.26069641 15.92567444 C2.26447573 15.11749411 2.26825506 14.30931378 2.27214891 13.47664315 C2.23465674 8.61874174 1.54229402 4.61281215 0 0 Z " fill="#155761" transform="translate(339,15)"/>
<path d="M0 0 C0 3 0 3 -1.4375 4.5 C-1.953125 4.995 -2.46875 5.49 -3 6 C-3.33 6.99 -3.66 7.98 -4 9 C-5.6476038 9.71247732 -7.31763529 10.37400383 -9 11 C-12.02699938 12.93391627 -12.83745342 13.51236025 -14 17 C-14.99 17.33 -15.98 17.66 -17 18 C-18.21869929 20.50447516 -18.21869929 20.50447516 -19 23 C-19.99 23 -20.98 23 -22 23 C-18.21528229 24.26157257 -14.62060031 24.22283275 -10.6730957 24.29711914 C-9.39959763 24.32659889 -9.39959763 24.32659889 -8.10037231 24.35667419 C-5.29225424 24.42057967 -2.48404193 24.47789035 0.32421875 24.53515625 C2.27050155 24.57816208 4.21677532 24.62157863 6.16304016 24.66539001 C11.28723995 24.77963178 16.4115437 24.88828414 21.53588867 24.99578857 C26.7642341 25.10645907 31.99246248 25.22239369 37.22070312 25.33789062 C47.48036082 25.56375759 57.74013599 25.78372224 68 26 C67.67 24.35 67.34 22.7 67 21 C68.37562854 22.28965176 69.70766393 23.62689293 71 25 C71 25.66 71 26.32 71 27 C38 27 5 27 -29 27 C-26.82654773 22.65309546 -24.21333546 20.33678624 -20.5625 17.3125 C-19.94084961 16.78865723 -19.31919922 16.26481445 -18.67871094 15.72509766 C-13.86422514 11.68019079 -9.00111674 7.69320967 -4.109375 3.7421875 C-1.95895522 2.02222481 -1.95895522 2.02222481 0 0 Z " fill="#F05F2C" transform="translate(61,231)"/>
<path d="M0 0 C1.98 0.99 1.98 0.99 4 2 C4 34.67 4 67.34 4 101 C2.515 101.495 2.515 101.495 1 102 C1.00222061 100.76638229 1.00444122 99.53276459 1.00672913 98.26176453 C1.02697668 86.65166141 1.04197995 75.04156187 1.05181217 63.43144512 C1.05703688 57.46218316 1.0641271 51.49293542 1.07543945 45.52368164 C1.08628291 39.76600313 1.09227995 34.00833833 1.09487724 28.25065041 C1.09672885 26.05096025 1.10034443 23.85127087 1.10573006 21.65158653 C1.11295978 18.57719663 1.11399012 15.50286379 1.11352539 12.4284668 C1.11712067 11.51352951 1.12071594 10.59859222 1.12442017 9.65592957 C1.1230455 8.81880432 1.12167084 7.98167908 1.12025452 7.1191864 C1.12117631 6.39189174 1.1220981 5.66459707 1.12304783 4.91526318 C1.06736044 2.77749209 1.06736044 2.77749209 0 0 Z " fill="#D46A43" transform="translate(255,77)"/>
<path d="M0 0 C0.33 0 0.66 0 1 0 C1 19.47 1 38.94 1 59 C-28.37 59 -57.74 59 -88 59 C-87.34 57.68 -86.68 56.36 -86 55 C-85.01 55 -84.02 55 -83 55 C-83.66 55.99 -84.32 56.98 -85 58 C-56.95 58 -28.9 58 0 58 C0 38.86 0 19.72 0 0 Z " fill="#CB6B45" transform="translate(258,199)"/>
<path d="M0 0 C0.66 0.33 1.32 0.66 2 1 C1.01 2.32 0.02 3.64 -1 5 C13.91731733 4.89241265 28.83458839 4.77959146 43.75181961 4.66066074 C50.67925688 4.60555031 57.6066993 4.5521067 64.53417969 4.50268555 C71.22561014 4.45494359 77.91698788 4.4024263 84.60836029 4.34705925 C87.15506541 4.32675524 89.7017836 4.3080234 92.24851227 4.29092598 C95.8288085 4.26661516 99.40901656 4.23660006 102.98925781 4.20532227 C104.03080017 4.1995668 105.07234253 4.19381134 106.14544678 4.18788147 C113.13529362 4.11894471 120.04236232 3.66814767 127 3 C120.01978405 6.6405955 112.81850911 6.13825658 105.11962891 6.11352539 C103.92881714 6.11367142 102.73800537 6.11381744 101.5111084 6.1139679 C98.25948393 6.11339214 95.00790294 6.10838966 91.7562871 6.10139394 C88.35301942 6.0951269 84.94975082 6.09455395 81.54647827 6.09336853 C75.10804705 6.09026508 68.66963288 6.082065 62.23120916 6.07201904 C54.89868469 6.06082726 47.5661594 6.05533973 40.23362851 6.05032361 C25.15574285 6.03988155 10.07787313 6.02230123 -5 6 C-3.86695008 2.60085025 -2.87481525 1.94745549 0 0 Z " fill="#145861" transform="translate(327,252)"/>
<path d="M0 0 C15.75137708 -0.04680246 31.50273526 -0.08202916 47.2541647 -0.10362434 C54.56847399 -0.11391963 61.88273999 -0.12794641 69.19702148 -0.15087891 C75.57507564 -0.17086645 81.95309841 -0.18372913 88.33118302 -0.18817699 C91.70567051 -0.19077532 95.08006827 -0.19684576 98.4545269 -0.21146011 C102.22942259 -0.22601438 106.00413342 -0.22797626 109.77905273 -0.22705078 C111.44170166 -0.23783661 111.44170166 -0.23783661 113.13793945 -0.24884033 C119.40802387 -0.23224726 124.93216399 0.39897648 131 2 C131 2.33 131 2.66 131 3 C129.49401749 2.89403 129.49401749 2.89403 127.95761108 2.78591919 C114.48265255 1.90366001 101.03851633 1.8537301 87.5390625 1.8671875 C85.13056427 1.86651234 82.72206611 1.86554055 80.31356812 1.86428833 C75.30636943 1.86282531 70.29918876 1.86492325 65.29199219 1.86962891 C58.87178454 1.87536883 52.45161831 1.87201167 46.03141212 1.86605644 C41.07642298 1.86244976 36.12144375 1.86358917 31.16645432 1.86618423 C28.79733653 1.86685097 26.42821784 1.86603391 24.0591011 1.86370468 C20.76414838 1.86117176 17.46926402 1.86502589 14.17431641 1.87060547 C13.19774582 1.86858124 12.22117523 1.86655701 11.2150116 1.86447144 C10.31838303 1.86729126 9.42175446 1.87011108 8.49795532 1.87301636 C7.72121775 1.87339338 6.94448017 1.87377041 6.14420509 1.87415886 C3.98077701 2.00112818 2.07932149 2.40475218 0 3 C0 2.01 0 1.02 0 0 Z " fill="#205D66" transform="translate(322,3)"/>
<path d="M0 0 C0 3.10551666 -0.5393715 4.35261084 -2 7 C-2.66 7 -3.32 7 -4 7 C-3.67 7.99 -3.34 8.98 -3 10 C-3.99 10 -4.98 10 -6 10 C-8.475 11.485 -8.475 11.485 -11 13 C12.76 13.33 36.52 13.66 61 14 C61 14.33 61 14.66 61 15 C35.92 15 10.84 15 -15 15 C-13.76151755 11.28455264 -12.27154037 10.41504031 -9.1875 8.0625 C-5.89716136 5.54006905 -2.87259768 2.99312625 0 0 Z " fill="#145B63" transform="translate(856,243)"/>
<path d="M0 0 C1.37562854 1.28965176 2.70766393 2.62689293 4 4 C4 4.66 4 5.32 4 6 C-29 6 -62 6 -96 6 C-95.67 5.34 -95.34 4.68 -95 4 C-63.32 4.33 -31.64 4.66 1 5 C0.505 2.525 0.505 2.525 0 0 Z " fill="#CF6640" transform="translate(128,252)"/>
<path d="M0 0 C0 3.86695678 -1.41909971 6.5088452 -3 10 C-5.31 10 -7.62 10 -10 10 C-10.0825 10.53625 -10.165 11.0725 -10.25 11.625 C-11.26376098 14.8352431 -13.07160549 17.26292392 -15 20 C-14.34 20.33 -13.68 20.66 -13 21 C-13.33 22.32 -13.66 23.64 -14 25 C-18.00390625 20.703125 -18.00390625 20.703125 -19 19 C-18.36139826 14.32202151 -15.24390582 12.30582809 -11.75 9.5 C-11.17636719 9.02691406 -10.60273437 8.55382812 -10.01171875 8.06640625 C-6.70145593 5.34429947 -3.35148629 2.67110937 0 0 Z " fill="#E36333" transform="translate(135,171)"/>
<path d="M0 0 C20.46 0 40.92 0 62 0 C62.66 1.32 63.32 2.64 64 4 C63.25669434 3.67402832 62.51338867 3.34805664 61.74755859 3.01220703 C56.48342798 1.59037735 51.46694874 1.75404916 46.0390625 1.8046875 C44.32050552 1.80893234 44.32050552 1.80893234 42.56723022 1.81326294 C38.91971245 1.82442865 35.27244315 1.84952701 31.625 1.875 C29.14713897 1.88503445 26.66927408 1.89415949 24.19140625 1.90234375 C18.12751986 1.9243562 12.06377769 1.95779806 6 2 C6 2.99 6 3.98 6 5 C4.02 4.34 2.04 3.68 0 3 C0 2.01 0 1.02 0 0 Z " fill="#225B63" transform="translate(553,3)"/>
<path d="M0 0 C0.66 0.33 1.32 0.66 2 1 C1.67 1.66 1.34 2.32 1 3 C22.12 3 43.24 3 65 3 C65 2.34 65 1.68 65 1 C65.99 1.33 66.98 1.66 68 2 C68 2.66 68 3.32 68 4 C44.9 4 21.8 4 -2 4 C-1.34 2.68 -0.68 1.36 0 0 Z " fill="#16595F" transform="translate(555,254)"/>
<path d="M0 0 C0.66 0 1.32 0 2 0 C1.67 21.45 1.34 42.9 1 65 C0.67 65 0.34 65 0 65 C-0.13077768 57.24606092 -0.26119435 49.49211586 -0.39115143 41.73816299 C-0.45150834 38.13761347 -0.51198913 34.53706611 -0.57275391 30.93652344 C-0.63140145 27.46116362 -0.68972244 23.98579847 -0.74781799 20.51042938 C-0.78083041 18.54066087 -0.81418012 16.57089801 -0.84753418 14.60113525 C-0.86755493 13.40019226 -0.88757568 12.19924927 -0.90820312 10.96191406 C-0.92596802 9.90490295 -0.94373291 8.84789185 -0.96203613 7.7588501 C-0.99303599 5.50607781 -1 3.25298557 -1 1 C-0.67 0.67 -0.34 0.34 0 0 Z " fill="#E56539" transform="translate(257,192)"/>
<path d="M0 0 C3.17462943 2.40242227 5.85751741 4.61713276 8 8 C8 8.66 8 9.32 8 10 C7.21625 10.2475 6.4325 10.495 5.625 10.75 C2.67682892 12.15389099 2.0975223 13.00675737 1 16 C0.34 16 -0.32 16 -1 16 C-1.02685095 13.52076199 -1.04676547 11.0418116 -1.0625 8.5625 C-1.07506836 7.50192383 -1.07506836 7.50192383 -1.08789062 6.41992188 C-1.09653588 4.61306441 -1.05220011 2.80612397 -1 1 C-0.67 0.67 -0.34 0.34 0 0 Z " fill="#D86031" transform="translate(1,94)"/>
<path d="M0 0 C0.33 0 0.66 0 1 0 C1.07347656 1.60681641 1.07347656 1.60681641 1.1484375 3.24609375 C1.22345294 4.64325639 1.2990013 6.0403905 1.375 7.4375 C1.42140625 8.49807617 1.42140625 8.49807617 1.46875 9.58007812 C1.57280629 11.39239188 1.77919892 13.19817988 2 15 C2.66 15.33 3.32 15.66 4 16 C3.8246875 16.54785156 3.649375 17.09570312 3.46875 17.66015625 C2.74712684 21.2622585 3.40089725 24.62778545 3.84375 28.24609375 C4.00219549 31.03869551 3.66762902 33.29512065 3 36 C-2.55478699 26.03405863 -2.57227547 10.84471336 0 0 Z " fill="#DB5D3D" transform="translate(114,11)"/>
<path d="M0 0 C3.04964687 2.95723332 5.99754634 5.99958942 8.875 9.125 C9.49117187 9.78757813 10.10734375 10.45015625 10.7421875 11.1328125 C11.15726563 11.74898437 11.57234375 12.36515625 12 13 C11.67 13.99 11.34 14.98 11 16 C8.69 15.67 6.38 15.34 4 15 C4.185625 14.4225 4.37125 13.845 4.5625 13.25 C5.04023546 10.79307475 4.75729364 9.35602466 4 7 C2.35 7 0.7 7 -1 7 C-1.33 5.68 -1.66 4.36 -2 3 C-1.34 3 -0.68 3 0 3 C0 2.01 0 1.02 0 0 Z " fill="#EF5C26" transform="translate(116,238)"/>
<path d="M0 0 C1.86092419 0.43985481 3.71983936 0.89309411 5.55859375 1.41796875 C9.96919541 2.46945619 14.48639361 2.68471132 19 3 C19 3.66 19 4.32 19 5 C17.01739574 6.68732277 15.0167658 8.35366057 13 10 C12.67 10.66 12.34 11.32 12 12 C9.5625 13.6875 9.5625 13.6875 7 15 C6.34 14.67 5.68 14.34 5 14 C7.97 11.36 10.94 8.72 14 6 C12.288125 5.71125 10.57625 5.4225 8.8125 5.125 C4.958386 4.47490848 1.58721171 3.56079778 -2 2 C-1.34 1.34 -0.68 0.68 0 0 Z " fill="#DA663F" transform="translate(171,237)"/>
<path d="M0 0 C3.59476701 3.49205938 6.92026191 7.04033675 10 11 C10 11.66 10 12.32 10 13 C8.46875 14.2890625 8.46875 14.2890625 6.5 15.625 C5.8503125 16.07101563 5.200625 16.51703125 4.53125 16.9765625 C3.77328125 17.48316406 3.77328125 17.48316406 3 18 C1.8828125 14.2578125 1.8828125 14.2578125 2.9375 11.9375 C3.288125 11.298125 3.63875 10.65875 4 10 C4 9.01 4 8.02 4 7 C3.34 7 2.68 7 2 7 C0 4 0 4 0 0 Z " fill="#E16034" transform="translate(70,181)"/>
<path d="M0 0 C2.34018683 2.25660873 2.96506422 3.48760851 3.1875 6.75 C3.125625 7.4925 3.06375 8.235 3 9 C1.6078125 8.7215625 1.6078125 8.7215625 0.1875 8.4375 C-3.01343771 7.75876119 -3.01343771 7.75876119 -6 9 C-6.99 7.68 -7.98 6.36 -9 5 C-4.5 0 -4.5 0 0 0 Z " fill="#ED5B24" transform="translate(146,165)"/>
<path d="M0 0 C-0.66 0.433125 -1.32 0.86625 -2 1.3125 C-2.66 1.869375 -3.32 2.42625 -4 3 C-4 3.99 -4 4.98 -4 6 C-4.63808594 6.18175781 -5.27617187 6.36351563 -5.93359375 6.55078125 C-6.75988281 6.80214844 -7.58617187 7.05351563 -8.4375 7.3125 C-9.26121094 7.55613281 -10.08492187 7.79976562 -10.93359375 8.05078125 C-11.95646484 8.52064453 -11.95646484 8.52064453 -13 9 C-13.33 9.99 -13.66 10.98 -14 12 C-17.0625 13.1875 -17.0625 13.1875 -20 14 C-6.7845805 -2.26152683 -6.7845805 -2.26152683 0 0 Z " fill="#E06334" transform="translate(193,62)"/>
<path d="M0 0 C7.39277214 6.77670779 13.6472857 17.7301664 14.140625 27.8984375 C14.07101562 28.93871094 14.07101562 28.93871094 14 30 C13.67 29.34 13.34 28.68 13 28 C12.34 28 11.68 28 11 28 C10.84144531 27.154375 10.68289063 26.30875 10.51953125 25.4375 C9.1023504 18.54733894 7.64148428 12.45336107 3 7 C2.34 6.67 1.68 6.34 1 6 C0.375 2.9375 0.375 2.9375 0 0 Z " fill="#0F5B60" transform="translate(513,137)"/>
<path d="M0 0 C4.36771438 4.0545878 7.64061884 8.53058666 11 13.4375 C15.22146539 19.58762227 15.22146539 19.58762227 19.875 25.41015625 C22 28 22 28 22 30 C20.125 29.8125 20.125 29.8125 18 29 C17.32044536 27.3385465 16.6559984 25.67089447 16 24 C14.43997106 21.55131098 14.43997106 21.55131098 12.625 19.25 C12.03976562 18.47140625 11.45453125 17.6928125 10.8515625 16.890625 C8.86554742 14.86271087 7.77089743 14.3661979 5 14 C5.2475 13.443125 5.495 12.88625 5.75 12.3125 C6.28573236 9.80776288 6.28573236 9.80776288 4.1875 7.5625 C3.465625 6.716875 2.74375 5.87125 2 5 C0.75 2.1875 0.75 2.1875 0 0 Z " fill="#115D64" transform="translate(671,86)"/>
<path d="M0 0 C0.99 0 1.98 0 3 0 C3.66 1.65 4.32 3.3 5 5 C5.99 5 6.98 5 8 5 C8 6.32 8 7.64 8 9 C8.66 9 9.32 9 10 9 C10 8.34 10 7.68 10 7 C11.32 7.33 12.64 7.66 14 8 C13.67 9.32 13.34 10.64 13 12 C13.66 12 14.32 12 15 12 C15 13.98 15 15.96 15 18 C11.3232471 14.4226188 7.95617318 10.70146268 4.6875 6.75 C4.23310547 6.20859375 3.77871094 5.6671875 3.31054688 5.109375 C0 1.12676222 0 1.12676222 0 0 Z " fill="#EC5C2B" transform="translate(65,124)"/>
<path d="M0 0 C4.1454174 0.57351648 7.01998356 2.9686238 10.25 5.4375 C10.80429687 5.84548828 11.35859375 6.25347656 11.9296875 6.67382812 C13.32810909 7.72953309 14.66950652 8.85987587 16 10 C16 10.66 16 11.32 16 12 C12.6496302 11.42235003 11.31766228 10.41423154 9 8 C6.90010348 6.82425289 6.90010348 6.82425289 5 6 C4.67 6.99 4.34 7.98 4 9 C3.01 8.67 2.02 8.34 1 8 C0.02806066 5.26089824 0 2.87649679 0 0 Z " fill="#0F616B" transform="translate(905,246)"/>
<path d="M0 0 C1.32 0 2.64 0 4 0 C4 0.66 4 1.32 4 2 C4.66 2 5.32 2 6 2 C5.65120368 5.25543229 4.97866739 6.01873107 2.4375 8.25 C1.633125 8.8275 0.82875 9.405 0 10 C-0.66 9.67 -1.32 9.34 -2 9 C-2 6.69 -2 4.38 -2 2 C-1.34 2 -0.68 2 0 2 C0 1.34 0 0.68 0 0 Z " fill="#E9602E" transform="translate(2,248)"/>
<path d="M0 0 C1.4282618 0.00031703 2.85654759 0.01163717 4.28466797 0.03173828 C5.41242142 0.03598312 5.41242142 0.03598312 6.56295776 0.04031372 C8.96775125 0.05152204 11.37217428 0.07662726 13.77685547 0.10205078 C15.40575635 0.11207976 17.03466305 0.12120576 18.66357422 0.12939453 C22.65981103 0.15146343 26.65577041 0.18599728 30.65185547 0.22705078 C30.65185547 0.55705078 30.65185547 0.88705078 30.65185547 1.22705078 C29.4188269 1.25677979 29.4188269 1.25677979 28.16088867 1.28710938 C24.42839421 1.38249681 20.69644877 1.49212167 16.96435547 1.60205078 C15.02399414 1.64845703 15.02399414 1.64845703 13.04443359 1.69580078 C11.79726562 1.73447266 10.55009766 1.77314453 9.26513672 1.81298828 C8.11827393 1.84440918 6.97141113 1.87583008 5.78979492 1.90820312 C2.69145916 2.22302663 0.49113328 3.01087059 -2.34814453 4.22705078 C-3.33814453 4.22705078 -4.32814453 4.22705078 -5.34814453 4.22705078 C-5.67814453 4.88705078 -6.00814453 5.54705078 -6.34814453 6.22705078 C-5.4779766 1.87621115 -4.73811484 0.32131011 0 0 Z " fill="#D4562A" transform="translate(122.34814453125,-0.22705078125)"/>
<path d="M0 0 C0.99 0 1.98 0 3 0 C6 5.75 6 5.75 6 8 C6.66 8 7.32 8 8 8 C8.3403125 8.8353125 8.3403125 8.8353125 8.6875 9.6875 C9.98466965 12.22215457 9.98466965 12.22215457 12.625 14.5625 C15 17 15 17 15 20 C15.66 20 16.32 20 17 20 C17.33 21.32 17.66 22.64 18 24 C17.34 23.67 16.68 23.34 16 23 C16 22.34 16 21.68 16 21 C15.34 21 14.68 21 14 21 C12.68269433 19.38600386 11.44595733 17.70586161 10.25 16 C7.26386099 11.77690194 4.21641169 7.63322878 1.03125 3.55859375 C0 2 0 2 0 0 Z " fill="#13575F" transform="translate(611,74)"/>
<path d="M0 0 C0.99 0.33 1.98 0.66 3 1 C-2.10658016 5.12231868 -7.08698737 9.10383055 -13 12 C-13.66 11.67 -14.32 11.34 -15 11 C-13.625 9.5 -13.625 9.5 -12 8 C-11.34 8 -10.68 8 -10 8 C-10.66 6.68 -11.32 5.36 -12 4 C-10.63875 4.0309375 -10.63875 4.0309375 -9.25 4.0625 C-6.56208142 4.01080926 -4.50179694 3.92659146 -2 3 C-1.67 2.34 -1.34 1.68 -1 1 C-0.67 0.67 -0.34 0.34 0 0 Z " fill="#0F5C62" transform="translate(501,231)"/>
<path d="M0 0 C4.67496012 1.2021326 6.46383341 3.54132113 9.08203125 7.34375 C10 9 10 9 10 11 C10.66 11 11.32 11 12 11 C13.6875 13.3125 13.6875 13.3125 15 16 C14.67 16.99 14.34 17.98 14 19 C12.2255394 16.77363942 10.45537533 14.54408033 8.6875 12.3125 C7.93823242 11.37374023 7.93823242 11.37374023 7.17382812 10.41601562 C4.52195158 7.06165522 2.09641651 3.74206769 0 0 Z M12 10 C12.66 10 13.32 10 14 10 C13.67 10.66 13.34 11.32 13 12 C12.67 11.34 12.34 10.68 12 10 Z " fill="#115B62" transform="translate(673,156)"/>
<path d="M0 0 C7.92 0 15.84 0 24 0 C24 4.62 24 9.24 24 14 C23.01 13.67 22.02 13.34 21 13 C21.33 9.7 21.66 6.4 22 3 C19.65061112 1.82530556 18.04926795 1.79965111 15.4296875 1.68359375 C14.53378906 1.64169922 13.63789063 1.59980469 12.71484375 1.55664062 C11.77769531 1.51732422 10.84054688 1.47800781 9.875 1.4375 C8.93011719 1.39431641 7.98523438 1.35113281 7.01171875 1.30664062 C4.67462908 1.20040928 2.3374317 1.09836824 0 1 C0 0.67 0 0.34 0 0 Z " fill="#D16940" transform="translate(235,1)"/>
<path d="M0 0 C3.68000434 2.75839204 6.49505889 5.62075382 9.3125 9.25 C10.00988281 10.14203125 10.70726563 11.0340625 11.42578125 11.953125 C11.94527344 12.62859375 12.46476562 13.3040625 13 14 C12.67 14.66 12.34 15.32 12 16 C9.525 15.01 9.525 15.01 7 14 C7.33 13.01 7.66 12.02 8 11 C6.68 10.34 5.36 9.68 4 9 C4 7.68 4 6.36 4 5 C2.35 4.67 0.7 4.34 -1 4 C-0.67 2.68 -0.34 1.36 0 0 Z " fill="#E56131" transform="translate(92,209)"/>
<path d="M0 0 C0 3 0 3 -1.4375 4.5 C-1.953125 4.995 -2.46875 5.49 -3 6 C-3.33 6.99 -3.66 7.98 -4 9 C-5.6476038 9.71247732 -7.31763529 10.37400383 -9 11 C-12.02699938 12.93391627 -12.83745342 13.51236025 -14 17 C-15.65 17 -17.3 17 -19 17 C-15.27307987 13.16099204 -11.35798331 9.674858 -7.25 6.25 C-3.5305581 3.22811359 -3.5305581 3.22811359 0 0 Z " fill="#D76740" transform="translate(61,231)"/>
<path d="M0 0 C0.33 0.99 0.66 1.98 1 3 C0.01 3.8971875 0.01 3.8971875 -1 4.8125 C-3.3373846 6.87501834 -3.3373846 6.87501834 -3 10 C-3.680625 10.2475 -4.36125 10.495 -5.0625 10.75 C-7.44425169 11.76351136 -9.38454062 12.83096926 -11.5625 14.1875 C-15 16 -15 16 -17.21484375 15.61328125 C-17.80394531 15.41089844 -18.39304687 15.20851563 -19 15 C-18.443125 14.72027344 -17.88625 14.44054687 -17.3125 14.15234375 C-10.51459676 10.58114796 -4.31258829 6.46888244 0 0 Z " fill="#155860" transform="translate(456,90)"/>
<path d="M0 0 C2.97 0 5.94 0 9 0 C6.59757773 3.17462943 4.38286724 5.85751741 1 8 C0.34 8 -0.32 8 -1 8 C-0.67 5.36 -0.34 2.72 0 0 Z " fill="#E75E2B" transform="translate(11,242)"/>
<path d="M0 0 C0.99 0.33 1.98 0.66 3 1 C2.34 2.65 1.68 4.3 1 6 C0.01 6 -0.98 6 -2 6 C-2 6.66 -2 7.32 -2 8 C-3.98 8.33 -5.96 8.66 -8 9 C-6.40758592 4.70048197 -3.64459275 2.60328053 0 0 Z " fill="#E36230" transform="translate(41,248)"/>
<path d="M0 0 C1.70884005 1.62339805 3.37446717 3.29319053 5 5 C5 5.66 5 6.32 5 7 C5.58265625 7.26554688 6.1653125 7.53109375 6.765625 7.8046875 C9.06174228 9.03302996 10.80356018 10.40314939 12.75 12.125 C13.67039062 12.93324219 13.67039062 12.93324219 14.609375 13.7578125 C15.06828125 14.16773438 15.5271875 14.57765625 16 15 C15.01 15.495 15.01 15.495 14 16 C11.875 15.0625 11.875 15.0625 10 14 C10 13.34 10 12.68 10 12 C9.34 12 8.68 12 8 12 C8 11.34 8 10.68 8 10 C7.34 10 6.68 10 6 10 C6 9.34 6 8.68 6 8 C4.68 8 3.36 8 2 8 C0.74335022 5.09399739 0 3.20395416 0 0 Z " fill="#145B61" transform="translate(604,239)"/>
<path d="M0 0 C0.66 0 1.32 0 2 0 C2 0.66 2 1.32 2 2 C3.98 2 5.96 2 8 2 C8 3.65 8 5.3 8 7 C8.66 7 9.32 7 10 7 C10 8.32 10 9.64 10 11 C6.57802415 9.57913611 4.90089977 7.93029236 2.75 4.9375 C1.96882812 3.86822266 1.96882812 3.86822266 1.171875 2.77734375 C0 1 0 1 0 0 Z " fill="#DC643A" transform="translate(141,96)"/>
<path d="M0 0 C1.16609361 3.49828082 0.46369745 5.2332517 -0.47949219 8.6953125 C-1.39616997 12.75414848 -1.47213721 16.85359669 -1.625 21 C-1.66367188 21.87011719 -1.70234375 22.74023438 -1.7421875 23.63671875 C-1.83540887 25.75750486 -1.91874136 27.87872185 -2 30 C-2.33 30 -2.66 30 -3 30 C-3.08751413 26.12514365 -3.14056435 22.25054357 -3.1875 18.375 C-3.21263672 17.28058594 -3.23777344 16.18617187 -3.26367188 15.05859375 C-3.31690288 9.20318317 -3.29983099 4.93675502 0 0 Z " fill="#C86E3A" transform="translate(82,10)"/>
<path d="M0 0 C0 3.99711412 -1.32141544 5.1042329 -4 8 C-5.65261839 9.02304948 -7.31791365 10.02616054 -9 11 C-9.99 12.485 -9.99 12.485 -11 14 C-13.625 14.6875 -13.625 14.6875 -16 15 C-12.49441279 11.44314278 -8.89446761 8.03716953 -5.1875 4.6875 C-4.21167969 3.80449219 -3.23585938 2.92148438 -2.23046875 2.01171875 C-1.49441406 1.34785156 -0.75835937 0.68398437 0 0 Z " fill="#DD633D" transform="translate(79,216)"/>
<path d="M0 0 C3.91939465 3.80411834 7.49102731 7.81576108 11 12 C10.67 12.66 10.34 13.32 10 14 C9.2575 13.38125 8.515 12.7625 7.75 12.125 C5.23671976 9.94147169 5.23671976 9.94147169 2.75 9.25 C1 8 1 8 0.53125 6.1015625 C0.27540319 4.07610855 0.13143956 2.03731316 0 0 Z " fill="#DF6131" transform="translate(36,138)"/>
<path d="M0 0 C0.99 0.33 1.98 0.66 3 1 C-0.1799558 6.62775683 -3.12694031 11.70024145 -8 16 C-7.8125 13.25 -7.8125 13.25 -7 10 C-5.35360035 8.64172029 -3.68704193 7.30745749 -2 6 C-1.1957792 3.40144267 -1.1957792 3.40144267 -1 1 C-0.67 0.67 -0.34 0.34 0 0 Z " fill="#11545B" transform="translate(519,209)"/>
<path d="M0 0 C6.15406515 2.27928339 9.60068503 8.71217671 13 14 C12.34 14.66 11.68 15.32 11 16 C9.16283711 13.52365012 7.33092199 11.04346678 5.5 8.5625 C4.97535156 7.85544922 4.45070313 7.14839844 3.91015625 6.41992188 C3.41386719 5.74638672 2.91757812 5.07285156 2.40625 4.37890625 C1.94541016 3.7557251 1.48457031 3.13254395 1.00976562 2.49047852 C0 1 0 1 0 0 Z " fill="#115A61" transform="translate(648,123)"/>
<path d="M0 0 C4.74107498 3.25102284 7.20870403 7.10632366 10 12 C9.360625 11.814375 8.72125 11.62875 8.0625 11.4375 C7.0415625 11.2209375 7.0415625 11.2209375 6 11 C5.67 11.33 5.34 11.66 5 12 C4.01 11.67 3.02 11.34 2 11 C2.04125 9.9275 2.0825 8.855 2.125 7.75 C2.0114175 4.34252515 1.78726636 2.79260369 0 0 Z " fill="#DC6132" transform="translate(16,113)"/>
<path d="M0 0 C2.80561393 1.40280696 3.00680507 3.0509005 4.125 5.9375 C4.47820312 6.83339844 4.83140625 7.72929688 5.1953125 8.65234375 C6 11 6 11 6 13 C4.68 13.33 3.36 13.66 2 14 C2 12.68 2 11.36 2 10 C1.34 10 0.68 10 0 10 C0 6.66666667 0 3.33333333 0 0 Z " fill="#DE6035" transform="translate(88,80)"/>
<path d="M0 0 C0.66 0 1.32 0 2 0 C2.061875 0.61875 2.12375 1.2375 2.1875 1.875 C2.828919 4.27761141 2.828919 4.27761141 5.5625 5.25 C6.366875 5.4975 7.17125 5.745 8 6 C7.67 6.99 7.34 7.98 7 9 C7.99 9 8.98 9 10 9 C10 10.65 10 12.3 10 14 C5.78185183 10.0299782 2.38772897 5.69159716 -1 1 C-0.67 0.67 -0.34 0.34 0 0 Z " fill="#E45F33" transform="translate(38,88)"/>
<path d="M0 0 C0 3.51716303 -0.82445585 4.37121748 -3 7 C-2.34 7.33 -1.68 7.66 -1 8 C-1.33 8.99 -1.66 9.98 -2 11 C-3.98 11 -5.96 11 -8 11 C-6.52670958 5.99081256 -3.72484762 3.48192278 0 0 Z " fill="#0D5E65" transform="translate(564,246)"/>
<path d="M0 0 C-2.97 2.64 -5.94 5.28 -9 8 C-11 5 -11 5 -11 3 C-9.68 3 -8.36 3 -7 3 C-6.67 2.01 -6.34 1.02 -6 0 C-3 -1 -3 -1 0 0 Z " fill="#DE6433" transform="translate(32,233)"/>
<path d="M0 0 C3.48749314 2.78999451 6.50157221 5.25235831 9 9 C8.67 9.66 8.34 10.32 8 11 C7.01 10.67 6.02 10.34 5 10 C4.67 9.34 4.34 8.68 4 8 C3.01 8.33 2.02 8.66 1 9 C1 7.68 1 6.36 1 5 C0.69595322 3.32774271 0.36871088 1.65919896 0 0 Z " fill="#E46039" transform="translate(58,166)"/>
<path d="M0 0 C0.33 0 0.66 0 1 0 C0.66944259 6.94170563 0.24571282 12.79081025 -3 19 C-3.33 19 -3.66 19 -4 19 C-4.33 16.69 -4.66 14.38 -5 12 C-4.01 11.67 -3.02 11.34 -2 11 C-1.34 7.37 -0.68 3.74 0 0 Z " fill="#125C64" transform="translate(502,64)"/>
<path d="M0 0 C1.32 0.33 2.64 0.66 4 1 C2.56771184 2.31818554 1.12897516 3.62936704 -0.3125 4.9375 C-1.11300781 5.66839844 -1.91351563 6.39929688 -2.73828125 7.15234375 C-5 9 -5 9 -8 10 C-7.34 8.02 -6.68 6.04 -6 4 C-4.35 4 -2.7 4 -1 4 C-0.67 2.68 -0.34 1.36 0 0 Z " fill="#DE643B" transform="translate(68,199)"/>
<path d="M0 0 C-2.80804268 2.96404505 -5.18315774 5.44499019 -9 7 C-8.34 5.35 -7.68 3.7 -7 2 C-7.99 2 -8.98 2 -10 2 C-10 1.34 -10 0.68 -10 0 C-6.7169902 -1.6415049 -3.57454967 -0.51888624 0 0 Z " fill="#E25F2D" transform="translate(128,154)"/>
<path d="M0 0 C0.99 0 1.98 0 3 0 C3.91896365 1.36142763 4.82817042 2.73058915 5.68359375 4.1328125 C8.29880715 7.84222498 11.7298596 10.87272981 15 14 C12 14 12 14 9.08203125 11.4453125 C7.98435681 10.34630754 6.89478953 9.23915907 5.8125 8.125 C5.25369141 7.56941406 4.69488281 7.01382813 4.11914062 6.44140625 C0 2.26694139 0 2.26694139 0 0 Z " fill="#1C5B64" transform="translate(737,235)"/>
<path d="M0 0 C2.66666667 2.66666667 5.33333333 5.33333333 8 8 C7.67 8.66 7.34 9.32 7 10 C6.608125 9.505 6.21625 9.01 5.8125 8.5 C3.44908285 6.54406857 1.98564997 6.75792027 -1 7 C-1.33 5.68 -1.66 4.36 -2 3 C-1.34 3 -0.68 3 0 3 C0 2.01 0 1.02 0 0 Z " fill="#DF6035" transform="translate(116,238)"/>
<path d="M0 0 C1.32 0.33 2.64 0.66 4 1 C4.6875 2.625 4.6875 2.625 5 5 C3.5625 8.25 3.5625 8.25 2 11 C1.67 11 1.34 11 1 11 C0.67 7.37 0.34 3.74 0 0 Z " fill="#ED5927" transform="translate(0,97)"/>
<path d="M0 0 C0.33 0 0.66 0 1 0 C1 5.28 1 10.56 1 16 C0.34 16 -0.32 16 -1 16 C-2.00158501 10.65821327 -1.92547745 6.36776919 -1 1 C-0.67 0.67 -0.34 0.34 0 0 Z " fill="#DF6538" transform="translate(258,17)"/>
<path d="M0 0 C7.425 0.99 7.425 0.99 15 2 C15 2.66 15 3.32 15 4 C12.36 4.66 9.72 5.32 7 6 C7 5.34 7 4.68 7 4 C6.34 4 5.68 4 5 4 C5 3.34 5 2.68 5 2 C3.35 2 1.7 2 0 2 C0 1.34 0 0.68 0 0 Z " fill="#DA6742" transform="translate(199,207)"/>
<path d="M0 0 C2.475 0.495 2.475 0.495 5 1 C5 1.99 5 2.98 5 4 C6.65 3.67 8.3 3.34 10 3 C10 2.34 10 1.68 10 1 C10.99 1.33 11.98 1.66 13 2 C11.02 3.65 9.04 5.3 7 7 C3.17053157 5.54744301 1.87949705 3.57104439 0 0 Z " fill="#DA643C" transform="translate(99,166)"/>
<path d="M0 0 C4 0 4 0 5.75 1.6875 C7.18991433 4.35134151 7.24862931 6.01644824 7 9 C6.46375 8.360625 5.9275 7.72125 5.375 7.0625 C2.55632807 4.61470596 0.66139268 4.33285388 -3 4 C-1.75 2 -1.75 2 0 0 Z " fill="#E26437" transform="translate(142,165)"/>
<path d="M0 0 C3.375 0.75 3.375 0.75 7 2 C8.125 4.0625 8.125 4.0625 9 6 C11.55519921 6.81171228 11.55519921 6.81171228 14 7 C14 7.66 14 8.32 14 9 C8.40440609 7.60110152 4.29704147 4.74082545 0 1 C0 0.67 0 0.34 0 0 Z " fill="#DE633C" transform="translate(151,227)"/>
<path d="M0 0 C3 0 3 0 4.6875 1.5 C5.120625 1.995 5.55375 2.49 6 3 C6.33 2.34 6.66 1.68 7 1 C7.66 4.3 8.32 7.6 9 11 C5.36440339 7.56638098 2.63886654 4.2026393 0 0 Z " fill="#0F5960" transform="translate(701,192)"/>
<path d="M0 0 C3.62107449 4.44404597 5.33060893 8.21434368 5 14 C4.67 13.01 4.34 12.02 4 11 C3.01 11.33 2.02 11.66 1 12 C0.855625 10.88625 0.71125 9.7725 0.5625 8.625 C0.21627965 5.17857953 0.21627965 5.17857953 -1 3 C-0.67 2.01 -0.34 1.02 0 0 Z " fill="#0F5E66" transform="translate(497,34)"/>
<path d="M0 0 C1.46449296 4.44229531 -0.03304259 6.83912856 -2 11 C-2.33 11.99 -2.66 12.98 -3 14 C-5.0625 14.6875 -5.0625 14.6875 -7 15 C-5.63408831 11.45756548 -4.09068516 8.07372071 -2.375 4.6875 C-1.70597656 3.36298828 -1.70597656 3.36298828 -1.0234375 2.01171875 C-0.68570312 1.34785156 -0.34796875 0.68398437 0 0 Z " fill="#14585F" transform="translate(486,190)"/>
<path d="M0 0 C1.77388086 1.09926403 3.54399684 2.20460502 5.3125 3.3125 C6.29863281 3.92738281 7.28476563 4.54226562 8.30078125 5.17578125 C11 7 11 7 14 10 C11.03 9.01 8.06 8.02 5 7 C5 6.34 5 5.68 5 5 C4.01 5 3.02 5 2 5 C2 4.34 2 3.68 2 3 C1.34 3 0.68 3 0 3 C0 2.01 0 1.02 0 0 Z " fill="#DC6240" transform="translate(172,192)"/>
<path d="M0 0 C2.31 0 4.62 0 7 0 C7 4 7 4 6 6 C4.02 5.01 2.04 4.02 0 3 C0 2.01 0 1.02 0 0 Z " fill="#146169" transform="translate(841,3)"/>
<path d="M0 0 C0.66 0 1.32 0 2 0 C2.66 0.99 3.32 1.98 4 3 C5.32 3.33 6.64 3.66 8 4 C8.66 6.64 9.32 9.28 10 12 C6.40459445 8.50732032 3.12221448 4.92506963 0 1 C0 0.67 0 0.34 0 0 Z " fill="#125A5F" transform="translate(718,213)"/>
<path d="M0 0 C0.99 0 1.98 0 3 0 C3.33 1.98 3.66 3.96 4 6 C1.125 5.6875 1.125 5.6875 -2 5 C-2.66 4.01 -3.32 3.02 -4 2 C-2.68 2 -1.36 2 0 2 C0 1.34 0 0.68 0 0 Z " fill="#E95F2D" transform="translate(213,170)"/>
<path d="M0 0 C1.8125 0.1875 1.8125 0.1875 4 1 C6.14197494 3.90696599 7 5.35521088 7 9 C7.66 9 8.32 9 9 9 C8.67 9.66 8.34 10.32 8 11 C2.19794344 5.35475578 2.19794344 5.35475578 0 2 C0 1.34 0 0.68 0 0 Z " fill="#E26336" transform="translate(176,139)"/>
<path d="M0 0 C0.66 0 1.32 0 2 0 C2.33 1.32 2.66 2.64 3 4 C2.01 4.33 1.02 4.66 0 5 C0 9.29 0 13.58 0 18 C-0.33 18 -0.66 18 -1 18 C-1.02698422 15.56242587 -1.04683099 13.12515085 -1.0625 10.6875 C-1.07087891 9.99720703 -1.07925781 9.30691406 -1.08789062 8.59570312 C-1.10307906 5.4516975 -1.00193327 3.00579981 0 0 Z " fill="#DB693E" transform="translate(165,92)"/>
<path d="M0 0 C-1 1.5 -1 1.5 -3 3 C-5.71846235 3.27345479 -8.25677199 3.13491285 -11 3 C-10 1 -10 1 -7.1875 -0.1875 C-4.14038924 -0.96421451 -2.86250637 -1.10096399 0 0 Z " fill="#0C565D" transform="translate(454,225)"/>
<path d="M0 0 C0 0.66 0 1.32 0 2 C-0.928125 2.185625 -0.928125 2.185625 -1.875 2.375 C-4.19120832 2.87197356 -4.19120832 2.87197356 -6 5 C-6.66 4.34 -7.32 3.68 -8 3 C-8.99 3 -9.98 3 -11 3 C-11.99 3 -12.98 3 -14 3 C-14.66 2.34 -15.32 1.68 -16 1 C-13.89594609 0.83191581 -11.79175242 0.66558052 -9.6875 0.5 C-8.51574219 0.4071875 -7.34398437 0.314375 -6.13671875 0.21875 C-4.094806 0.07635011 -2.0468721 0 0 0 Z " fill="#F2612D" transform="translate(231,210)"/>
<path d="M0 0 C2.92879371 0.62759865 5.36095629 1.58622659 8 3 C5.00519083 3.8723412 2.36424089 4.10829766 -0.75 4.0625 C-1.54921875 4.05347656 -2.3484375 4.04445312 -3.171875 4.03515625 C-3.77515625 4.02355469 -4.3784375 4.01195312 -5 4 C-4.0409375 3.8453125 -4.0409375 3.8453125 -3.0625 3.6875 C-2.381875 3.460625 -1.70125 3.23375 -1 3 C-0.67 2.01 -0.34 1.02 0 0 Z " fill="#E1562F" transform="translate(240,180)"/>
<path d="M0 0 C0.99 0 1.98 0 3 0 C3.66 1.65 4.32 3.3 5 5 C5.99 5 6.98 5 8 5 C8 6.32 8 7.64 8 9 C8.66 9 9.32 9 10 9 C9.67 9.99 9.34 10.98 9 12 C7.49707257 10.18992669 5.99772829 8.37687764 4.5 6.5625 C3.6646875 5.55316406 2.829375 4.54382813 1.96875 3.50390625 C0 1 0 1 0 0 Z " fill="#D5643E" transform="translate(65,124)"/>
<path d="M0 0 C3.63 0 7.26 0 11 0 C11 0.33 11 0.66 11 1 C9.35 1.33 7.7 1.66 6 2 C6 2.99 6 3.98 6 5 C4.02 4.34 2.04 3.68 0 3 C0 2.01 0 1.02 0 0 Z " fill="#165F6B" transform="translate(553,3)"/>
<path d="M0 0 C0.66 0.66 1.32 1.32 2 2 C-1.20336822 4.83374881 -3.78087253 5.5205537 -8 6 C-8 5.34 -8 4.68 -8 4 C-5.36 2.68 -2.72 1.36 0 0 Z " fill="#E66337" transform="translate(248,201)"/>
<path d="M0 0 C2.31 0.33 4.62 0.66 7 1 C7 1.66 7 2.32 7 3 C8.65 3.33 10.3 3.66 12 4 C12 4.33 12 4.66 12 5 C7.6822542 4.49202991 3.96697886 3.80317221 0 2 C0 1.34 0 0.68 0 0 Z " fill="#D8663C" transform="translate(220,178)"/>
<path d="M0 0 C3.25524265 3.02272532 5.61820737 6.25718301 8 10 C7.67 10.66 7.34 11.32 7 12 C5 10.1875 5 10.1875 3 8 C3 7.01 3 6.02 3 5 C2.01 4.67 1.02 4.34 0 4 C0 2.68 0 1.36 0 0 Z " fill="#DB6240" transform="translate(105,113)"/>
<path d="M0 0 C3.14958831 3.42346555 3.56179109 6.44262737 4 11 C3.01 10.67 2.02 10.34 1 10 C-0.1577506 6.52674819 -0.06866652 3.63932552 0 0 Z " fill="#E16136" transform="translate(83,66)"/>
<path d="M0 0 C0.99 0.33 1.98 0.66 3 1 C1.8125 3.9375 1.8125 3.9375 0 7 C-2.6875 7.875 -2.6875 7.875 -5 8 C-3.35 5.36 -1.7 2.72 0 0 Z " fill="#125C65" transform="translate(570,238)"/>
<path d="M0 0 C3.28788824 3.11016455 5.83735988 6.01618925 8 10 C7.01 10 6.02 10 5 10 C4.67 9.01 4.34 8.02 4 7 C2.37667033 5.61423077 0.71275535 4.27358732 -1 3 C-0.67 2.01 -0.34 1.02 0 0 Z " fill="#145862" transform="translate(739,176)"/>
<path d="M0 0 C2.475 0.99 2.475 0.99 5 2 C5 2.66 5 3.32 5 4 C5.804375 4.268125 6.60875 4.53625 7.4375 4.8125 C8.283125 5.204375 9.12875 5.59625 10 6 C10.33 6.99 10.66 7.98 11 9 C5.70841026 7.59928507 3.22521956 4.14512755 0 0 Z " fill="#DE5D34" transform="translate(198,163)"/>
<path d="M0 0 C3.25516428 3.16474305 6.32008793 6.32752791 9 10 C9 10.66 9 11.32 9 12 C7.125 11.8125 7.125 11.8125 5 11 C3.9375 8.6875 3.9375 8.6875 3 6 C2.00612666 4.66209359 1.0073108 3.32781878 0 2 C0 1.34 0 0.68 0 0 Z " fill="#16555C" transform="translate(684,104)"/>
<path d="M0 0 C2 3 2 3 2 5 C1.01 5.495 1.01 5.495 0 6 C-1.13350534 8.01669827 -1.13350534 8.01669827 -2 10 C-2.66 8.68 -3.32 7.36 -4 6 C-2.68 4.02 -1.36 2.04 0 0 Z " fill="#E36333" transform="translate(172,77)"/>
<path d="M0 0 C0.33 1.32 0.66 2.64 1 4 C1.66 4 2.32 4 3 4 C3.84098656 8.01804691 4.05404945 11.01803543 3 15 C1.08697693 11.73386305 0.64325339 9.00554752 0.375 5.25 C0.30023438 4.26515625 0.22546875 3.2803125 0.1484375 2.265625 C0.09945312 1.51796875 0.05046875 0.7703125 0 0 Z " fill="#D76740" transform="translate(114,32)"/>
<path d="M0 0 C0.66 0 1.32 0 2 0 C5.22265625 5.2734375 5.22265625 5.2734375 6 7 C5.67 7.66 5.34 8.32 5 9 C2.69 6.69 0.38 4.38 -2 2 C-1.34 1.34 -0.68 0.68 0 0 Z " fill="#145860" transform="translate(564,9)"/>
<path d="M0 0 C1.32 0.33 2.64 0.66 4 1 C4 4.96 4 8.92 4 13 C3.01 12.67 2.02 12.34 1 12 C1.09539062 11.30132812 1.19078125 10.60265625 1.2890625 9.8828125 C1.39992188 8.97273437 1.51078125 8.06265625 1.625 7.125 C1.74101562 6.22007813 1.85703125 5.31515625 1.9765625 4.3828125 C1.98429687 3.59648438 1.99203125 2.81015625 2 2 C1.34 1.34 0.68 0.68 0 0 Z " fill="#DC6438" transform="translate(255,2)"/>
<path d="M0 0 C1.98 0 3.96 0 6 0 C6.59732819 2.76264289 7 5.16032769 7 8 C5.83035398 6.8572081 4.66435444 5.71068285 3.5 4.5625 C2.8503125 3.92441406 2.200625 3.28632813 1.53125 2.62890625 C0 1 0 1 0 0 Z " fill="#DA6A3B" transform="translate(135,212)"/>
<path d="M0 0 C3.63094642 2.64960955 5.89851796 5.01824456 8 9 C6.68 8.67 5.36 8.34 4 8 C4 7.01 4 6.02 4 5 C2.35 4.67 0.7 4.34 -1 4 C-0.67 2.68 -0.34 1.36 0 0 Z " fill="#D9633C" transform="translate(92,209)"/>
<path d="M0 0 C1.32 0.33 2.64 0.66 4 1 C2.54744301 4.82946843 0.57104439 6.12050295 -3 8 C-2.690625 7.236875 -2.38125 6.47375 -2.0625 5.6875 C-1.32106407 3.81210323 -0.63771783 1.91315348 0 0 Z " fill="#E16334" transform="translate(51,211)"/>
<path d="M0 0 C0.99 0 1.98 0 3 0 C2.125 7.75 2.125 7.75 1 10 C0.34 10 -0.32 10 -1 10 C-0.67 6.7 -0.34 3.4 0 0 Z " fill="#105B5F" transform="translate(524,193)"/>
<path d="M0 0 C2.31 1.65 4.62 3.3 7 5 C6.67 5.66 6.34 6.32 6 7 C4.35 6.67 2.7 6.34 1 6 C1 4.68 1 3.36 1 2 C0.34 1.67 -0.32 1.34 -1 1 C-0.67 0.67 -0.34 0.34 0 0 Z " fill="#E26131" transform="translate(162,184)"/>
<path d="M0 0 C0.33 0.66 0.66 1.32 1 2 C1.66 2 2.32 2 3 2 C3 4.31 3 6.62 3 9 C2.01 9.495 2.01 9.495 1 10 C0.63720544 8.71073008 0.28503302 7.41846728 -0.0625 6.125 C-0.35833984 5.04605469 -0.35833984 5.04605469 -0.66015625 3.9453125 C-1 2 -1 2 0 0 Z " fill="#EB592F" transform="translate(67,177)"/>
<path d="M0 0 C2.31 0.66 4.62 1.32 7 2 C7 3.65 7 5.3 7 7 C3.17053157 5.54744301 1.87949705 3.57104439 0 0 Z " fill="#0D5760" transform="translate(639,112)"/>
<path d="M0 0 C3.25524265 3.02272532 5.61820737 6.25718301 8 10 C7.67 10.66 7.34 11.32 7 12 C3.61663396 9.74442264 3.39927488 8.63811468 2 5 C1.34 4.67 0.68 4.34 0 4 C0 2.68 0 1.36 0 0 Z " fill="#145058" transform="translate(663,74)"/>
<path d="M0 0 C2.61688414 0.34695767 5.06226893 0.78869252 7.625 1.375 C8.68460938 1.60316406 8.68460938 1.60316406 9.765625 1.8359375 C11.51267131 2.21367724 13.25665712 2.60552095 15 3 C15 3.33 15 3.66 15 4 C8.9981863 4.21824777 3.80766296 3.5056904 -2 2 C-1.34 1.34 -0.68 0.68 0 0 Z " fill="#E66333" transform="translate(171,237)"/>
<path d="M0 0 C4.75 0.875 4.75 0.875 7 2 C7 3.32 7 4.64 7 6 C3.63279613 4.60667426 2.0140476 3.0210714 0 0 Z " fill="#E05D35" transform="translate(128,204)"/>
<path d="M0 0 C5.75 0.75 5.75 0.75 8 3 C8.99 4.485 8.99 4.485 10 6 C9.67 6.66 9.34 7.32 9 8 C7.87411986 7.04270084 6.7493285 6.08412105 5.625 5.125 C4.99851562 4.59132813 4.37203125 4.05765625 3.7265625 3.5078125 C2.44163349 2.38567993 1.20628025 1.20628025 0 0 Z " fill="#145660" transform="translate(445,34)"/>
<path d="M0 0 C3.63 0.33 7.26 0.66 11 1 C11 1.33 11 1.66 11 2 C3.375 4.125 3.375 4.125 0 3 C0 2.01 0 1.02 0 0 Z " fill="#0E5A65" transform="translate(731,3)"/>
<path d="M0 0 C0 0.99 0 1.98 0 3 C-4.625 5.125 -4.625 5.125 -8 4 C-6.4425489 0.88509781 -3.40085499 0 0 0 Z " fill="#E25D34" transform="translate(256,177)"/>
<path d="M0 0 C-1.45264038 0.8638129 -2.9123163 1.71580454 -4.375 2.5625 C-5.59316406 3.27599609 -5.59316406 3.27599609 -6.8359375 4.00390625 C-7.55007813 4.33261719 -8.26421875 4.66132812 -9 5 C-9.66 4.67 -10.32 4.34 -11 4 C-8.94006922 -0.11986157 -4.11800376 -1.37266792 0 0 Z " fill="#165A61" transform="translate(480,106)"/>
<path d="M0 0 C1.125 1.75 1.125 1.75 2 4 C1.125 6.25 1.125 6.25 0 8 C-2 7 -2 7 -2.8125 5.125 C-3 3 -3 3 -1.5625 1.25 C-1.046875 0.8375 -0.53125 0.425 0 0 Z " fill="#E65D29" transform="translate(100,104)"/>
<path d="M0 0 C1.134375 0.020625 2.26875 0.04125 3.4375 0.0625 C3.1075 0.7225 2.7775 1.3825 2.4375 2.0625 C1.4475 2.3925 0.4575 2.7225 -0.5625 3.0625 C-1.2225 3.7225 -1.8825 4.3825 -2.5625 5.0625 C-3.2225 3.7425 -3.8825 2.4225 -4.5625 1.0625 C-3.5625 0.0625 -3.5625 0.0625 0 0 Z " fill="#EC5F31" transform="translate(215.5625,57.9375)"/>
<path d="M0 0 C3.63 0 7.26 0 11 0 C7.36654198 1.81672901 3.73757294 3.41871914 0 5 C0 3.35 0 1.7 0 0 Z " fill="#DF5F32" transform="translate(193,34)"/>
<path d="M0 0 C0.33 0.99 0.66 1.98 1 3 C-1.64 3.33 -4.28 3.66 -7 4 C-7 3.01 -7 2.02 -7 1 C-4.53721199 -0.231394 -2.7204945 -0.07159196 0 0 Z " fill="#E06338" transform="translate(227,28)"/>
<path d="M0 0 C1.65 0 3.3 0 5 0 C3.515 3.96 3.515 3.96 2 8 C1.67 8 1.34 8 1 8 C0.67 5.36 0.34 2.72 0 0 Z " fill="#D86443" transform="translate(82,1)"/>
<path d="M0 0 C3.08089673 2.77280706 4.68775452 5.06326356 6 9 C3.525 8.01 3.525 8.01 1 7 C0.67 4.69 0.34 2.38 0 0 Z " fill="#105862" transform="translate(634,32)"/>
<path d="M0 0 C0.33 0.66 0.66 1.32 1 2 C3.64 2 6.28 2 9 2 C9 2.33 9 2.66 9 3 C4.38 3.33 -0.24 3.66 -5 4 C-3.35 2.68 -1.7 1.36 0 0 Z " fill="#0E626E" transform="translate(390,26)"/>
<path d="M0 0 C2.875 0.1875 2.875 0.1875 6 1 C7.375 3.5625 7.375 3.5625 8 6 C4.63408134 4.55746343 2.48952921 2.66735273 0 0 Z " fill="#145D64" transform="translate(761,258)"/>
<path d="M0 0 C0.66 0.33 1.32 0.66 2 1 C1.01 2.32 0.02 3.64 -1 5 C-0.34 5.33 0.32 5.66 1 6 C-0.98 6 -2.96 6 -5 6 C-3.86695008 2.60085025 -2.87481525 1.94745549 0 0 Z " fill="#1E6268" transform="translate(327,252)"/>
<path d="M0 0 C5.78461538 4.43076923 5.78461538 4.43076923 6.875 7.3125 C6.936875 8.1478125 6.936875 8.1478125 7 9 C3.17475764 7.549046 1.80909034 5.61818068 0 2 C0 1.34 0 0.68 0 0 Z " fill="#DE6241" transform="translate(50,156)"/>
<path d="M0 0 C0.66 0.33 1.32 0.66 2 1 C1.67 3.64 1.34 6.28 1 9 C0.34 9 -0.32 9 -1 9 C-0.67 6.03 -0.34 3.06 0 0 Z " fill="#E7602E" transform="translate(150,94)"/>
<path d="M0 0 C0.66 0.33 1.32 0.66 2 1 C1.19152271 2.16945792 0.37810888 3.33550461 -0.4375 4.5 C-0.88996094 5.1496875 -1.34242188 5.799375 -1.80859375 6.46875 C-2.20175781 6.9740625 -2.59492188 7.479375 -3 8 C-3.33 8 -3.66 8 -4 8 C-4.125 3.25 -4.125 3.25 -3 1 C-2.01 0.67 -1.02 0.34 0 0 Z " fill="#D2653E" transform="translate(167,57)"/>
<path d="M0 0 C3.08089673 2.77280706 4.68775452 5.06326356 6 9 C4 9 4 9 1.875 7.3125 C0 5 0 5 -0.25 2.25 C-0.1675 1.5075 -0.085 0.765 0 0 Z " fill="#105B61" transform="translate(649,54)"/>
<path d="M0 0 C1.32 0.66 2.64 1.32 4 2 C3.01 2.495 3.01 2.495 2 3 C2 4.65 2 6.3 2 8 C1.01 7.34 0.02 6.68 -1 6 C-0.67 4.02 -0.34 2.04 0 0 Z " fill="#E55E2B" transform="translate(11,50)"/>
<path d="M0 0 C1.31223496 3.93670488 0.24296256 6.12488144 -1 10 C-1.66 10 -2.32 10 -3 10 C-2.25 3.375 -2.25 3.375 0 0 Z " fill="#DD6037" transform="translate(82,10)"/>
<path d="M0 0 C2 1.375 2 1.375 4 3 C4 3.66 4 4.32 4 5 C2.35 5 0.7 5 -1 5 C-1 2 -1 2 0 0 Z " fill="#DC5F2F" transform="translate(9,104)"/>
<path d="M0 0 C0.66 0 1.32 0 2 0 C2.33 2.31 2.66 4.62 3 7 C1.35 5.35 -0.3 3.7 -2 2 C-1.34 1.34 -0.68 0.68 0 0 Z " fill="#E56033" transform="translate(34,81)"/>
<path d="M0 0 C0 3.10551666 -0.5393715 4.35261084 -2 7 C-3.32 7 -4.64 7 -6 7 C-4.77065985 3.31197956 -3.06140622 2.27643027 0 0 Z " fill="#256467" transform="translate(847,251)"/>
<path d="M0 0 C1.32 0.99 2.64 1.98 4 3 C3.67 3.99 3.34 4.98 3 6 C1.35 5.67 -0.3 5.34 -2 5 C-1.01 4.67 -0.02 4.34 1 4 C0.67 2.68 0.34 1.36 0 0 Z " fill="#E45F30" transform="translate(124,248)"/>
<path d="M0 0 C1.98 1.65 3.96 3.3 6 5 C3 6 3 6 0 6 C0 4.02 0 2.04 0 0 Z " fill="#DD6238" transform="translate(105,225)"/>
<path d="M0 0 C1.98 1.65 3.96 3.3 6 5 C5.01 5.33 4.02 5.66 3 6 C2.01 5.34 1.02 4.68 0 4 C0 2.68 0 1.36 0 0 Z " fill="#D5623F" transform="translate(156,178)"/>
<path d="M0 0 C0.66 0.99 1.32 1.98 2 3 C1.360625 3.12375 0.72125 3.2475 0.0625 3.375 C-0.618125 3.58125 -1.29875 3.7875 -2 4 C-2.33 4.66 -2.66 5.32 -3 6 C-2.42655063 3.13275314 -2.1385485 2.1385485 0 0 Z M2 1 C6 2 6 2 6 2 Z " fill="#E05D2D" transform="translate(119,0)"/>
</svg>
